ISO-10303-21;
HEADER;
/* Generated by software containing ST-Developer
 * from STEP Tools, Inc. (www.steptools.com) 
 */

FILE_DESCRIPTION(
/* description */ (''),
/* implementation_level */ '2;1');

FILE_NAME(
/* name */ 'DAY 15 Painter''s Tripod.step',
/* time_stamp */ '2026-07-31T17:15:52+05:30',
/* author */ (''),
/* organization */ (''),
/* preprocessor_version */ 'ST-DEVELOPER v20.1',
/* originating_system */ 'Autodesk Translation Framework v15.8.0.0',
/* authorisation */ '');

FILE_SCHEMA (('AUTOMOTIVE_DESIGN { 1 0 10303 214 3 1 1 }'));
ENDSEC;

DATA;
#10=MECHANICAL_DESIGN_GEOMETRIC_PRESENTATION_REPRESENTATION('',(#77),#1272);
#11=ITEM_DEFINED_TRANSFORMATION($,$,#746,#815);
#12=ITEM_DEFINED_TRANSFORMATION($,$,#746,#816);
#13=ITEM_DEFINED_TRANSFORMATION($,$,#746,#817);
#14=ITEM_DEFINED_TRANSFORMATION($,$,#746,#818);
#15=ITEM_DEFINED_TRANSFORMATION($,$,#746,#819);
#16=ITEM_DEFINED_TRANSFORMATION($,$,#746,#820);
#17=ITEM_DEFINED_TRANSFORMATION($,$,#746,#821);
#18=ITEM_DEFINED_TRANSFORMATION($,$,#746,#822);
#19=ITEM_DEFINED_TRANSFORMATION($,$,#746,#823);
#20=ITEM_DEFINED_TRANSFORMATION($,$,#746,#824);
#21=ITEM_DEFINED_TRANSFORMATION($,$,#746,#825);
#22=ITEM_DEFINED_TRANSFORMATION($,$,#746,#826);
#23=ITEM_DEFINED_TRANSFORMATION($,$,#746,#827);
#24=ITEM_DEFINED_TRANSFORMATION($,$,#746,#828);
#25=ITEM_DEFINED_TRANSFORMATION($,$,#746,#829);
#26=ITEM_DEFINED_TRANSFORMATION($,$,#746,#830);
#27=(
REPRESENTATION_RELATIONSHIP($,$,#1298,#1297)
REPRESENTATION_RELATIONSHIP_WITH_TRANSFORMATION(#11)
SHAPE_REPRESENTATION_RELATIONSHIP()
);
#28=(
REPRESENTATION_RELATIONSHIP($,$,#1298,#1297)
REPRESENTATION_RELATIONSHIP_WITH_TRANSFORMATION(#12)
SHAPE_REPRESENTATION_RELATIONSHIP()
);
#29=(
REPRESENTATION_RELATIONSHIP($,$,#1298,#1297)
REPRESENTATION_RELATIONSHIP_WITH_TRANSFORMATION(#13)
SHAPE_REPRESENTATION_RELATIONSHIP()
);
#30=(
REPRESENTATION_RELATIONSHIP($,$,#1298,#1297)
REPRESENTATION_RELATIONSHIP_WITH_TRANSFORMATION(#14)
SHAPE_REPRESENTATION_RELATIONSHIP()
);
#31=(
REPRESENTATION_RELATIONSHIP($,$,#1298,#1297)
REPRESENTATION_RELATIONSHIP_WITH_TRANSFORMATION(#15)
SHAPE_REPRESENTATION_RELATIONSHIP()
);
#32=(
REPRESENTATION_RELATIONSHIP($,$,#1298,#1297)
REPRESENTATION_RELATIONSHIP_WITH_TRANSFORMATION(#16)
SHAPE_REPRESENTATION_RELATIONSHIP()
);
#33=(
REPRESENTATION_RELATIONSHIP($,$,#1298,#1297)
REPRESENTATION_RELATIONSHIP_WITH_TRANSFORMATION(#17)
SHAPE_REPRESENTATION_RELATIONSHIP()
);
#34=(
REPRESENTATION_RELATIONSHIP($,$,#1298,#1297)
REPRESENTATION_RELATIONSHIP_WITH_TRANSFORMATION(#18)
SHAPE_REPRESENTATION_RELATIONSHIP()
);
#35=(
REPRESENTATION_RELATIONSHIP($,$,#1298,#1297)
REPRESENTATION_RELATIONSHIP_WITH_TRANSFORMATION(#19)
SHAPE_REPRESENTATION_RELATIONSHIP()
);
#36=(
REPRESENTATION_RELATIONSHIP($,$,#1298,#1297)
REPRESENTATION_RELATIONSHIP_WITH_TRANSFORMATION(#20)
SHAPE_REPRESENTATION_RELATIONSHIP()
);
#37=(
REPRESENTATION_RELATIONSHIP($,$,#1298,#1297)
REPRESENTATION_RELATIONSHIP_WITH_TRANSFORMATION(#21)
SHAPE_REPRESENTATION_RELATIONSHIP()
);
#38=(
REPRESENTATION_RELATIONSHIP($,$,#1298,#1297)
REPRESENTATION_RELATIONSHIP_WITH_TRANSFORMATION(#22)
SHAPE_REPRESENTATION_RELATIONSHIP()
);
#39=(
REPRESENTATION_RELATIONSHIP($,$,#1298,#1297)
REPRESENTATION_RELATIONSHIP_WITH_TRANSFORMATION(#23)
SHAPE_REPRESENTATION_RELATIONSHIP()
);
#40=(
REPRESENTATION_RELATIONSHIP($,$,#1298,#1297)
REPRESENTATION_RELATIONSHIP_WITH_TRANSFORMATION(#24)
SHAPE_REPRESENTATION_RELATIONSHIP()
);
#41=(
REPRESENTATION_RELATIONSHIP($,$,#1298,#1297)
REPRESENTATION_RELATIONSHIP_WITH_TRANSFORMATION(#25)
SHAPE_REPRESENTATION_RELATIONSHIP()
);
#42=(
REPRESENTATION_RELATIONSHIP($,$,#1298,#1297)
REPRESENTATION_RELATIONSHIP_WITH_TRANSFORMATION(#26)
SHAPE_REPRESENTATION_RELATIONSHIP()
);
#43=CONTEXT_DEPENDENT_SHAPE_REPRESENTATION(#27,#1281);
#44=CONTEXT_DEPENDENT_SHAPE_REPRESENTATION(#28,#1282);
#45=CONTEXT_DEPENDENT_SHAPE_REPRESENTATION(#29,#1283);
#46=CONTEXT_DEPENDENT_SHAPE_REPRESENTATION(#30,#1284);
#47=CONTEXT_DEPENDENT_SHAPE_REPRESENTATION(#31,#1285);
#48=CONTEXT_DEPENDENT_SHAPE_REPRESENTATION(#32,#1286);
#49=CONTEXT_DEPENDENT_SHAPE_REPRESENTATION(#33,#1287);
#50=CONTEXT_DEPENDENT_SHAPE_REPRESENTATION(#34,#1288);
#51=CONTEXT_DEPENDENT_SHAPE_REPRESENTATION(#35,#1289);
#52=CONTEXT_DEPENDENT_SHAPE_REPRESENTATION(#36,#1290);
#53=CONTEXT_DEPENDENT_SHAPE_REPRESENTATION(#37,#1291);
#54=CONTEXT_DEPENDENT_SHAPE_REPRESENTATION(#38,#1292);
#55=CONTEXT_DEPENDENT_SHAPE_REPRESENTATION(#39,#1293);
#56=CONTEXT_DEPENDENT_SHAPE_REPRESENTATION(#40,#1294);
#57=CONTEXT_DEPENDENT_SHAPE_REPRESENTATION(#41,#1295);
#58=CONTEXT_DEPENDENT_SHAPE_REPRESENTATION(#42,#1296);
#59=NEXT_ASSEMBLY_USAGE_OCCURRENCE('painter''s tripod:1',
'painter''s tripod:1','painter''s tripod:1',#1300,#1301,
'painter''s tripod:1');
#60=NEXT_ASSEMBLY_USAGE_OCCURRENCE('painter''s tripod:2',
'painter''s tripod:2','painter''s tripod:2',#1300,#1301,
'painter''s tripod:2');
#61=NEXT_ASSEMBLY_USAGE_OCCURRENCE('painter''s tripod:3',
'painter''s tripod:3','painter''s tripod:3',#1300,#1301,
'painter''s tripod:3');
#62=NEXT_ASSEMBLY_USAGE_OCCURRENCE('painter''s tripod:4',
'painter''s tripod:4','painter''s tripod:4',#1300,#1301,
'painter''s tripod:4');
#63=NEXT_ASSEMBLY_USAGE_OCCURRENCE('painter''s tripod:5',
'painter''s tripod:5','painter''s tripod:5',#1300,#1301,
'painter''s tripod:5');
#64=NEXT_ASSEMBLY_USAGE_OCCURRENCE('painter''s tripod:6',
'painter''s tripod:6','painter''s tripod:6',#1300,#1301,
'painter''s tripod:6');
#65=NEXT_ASSEMBLY_USAGE_OCCURRENCE('painter''s tripod:7',
'painter''s tripod:7','painter''s tripod:7',#1300,#1301,
'painter''s tripod:7');
#66=NEXT_ASSEMBLY_USAGE_OCCURRENCE('painter''s tripod:8',
'painter''s tripod:8','painter''s tripod:8',#1300,#1301,
'painter''s tripod:8');
#67=NEXT_ASSEMBLY_USAGE_OCCURRENCE('painter''s tripod:9',
'painter''s tripod:9','painter''s tripod:9',#1300,#1301,
'painter''s tripod:9');
#68=NEXT_ASSEMBLY_USAGE_OCCURRENCE('painter''s tripod:10',
'painter''s tripod:10','painter''s tripod:10',#1300,#1301,
'painter''s tripod:10');
#69=NEXT_ASSEMBLY_USAGE_OCCURRENCE('painter''s tripod:11',
'painter''s tripod:11','painter''s tripod:11',#1300,#1301,
'painter''s tripod:11');
#70=NEXT_ASSEMBLY_USAGE_OCCURRENCE('painter''s tripod:12',
'painter''s tripod:12','painter''s tripod:12',#1300,#1301,
'painter''s tripod:12');
#71=NEXT_ASSEMBLY_USAGE_OCCURRENCE('painter''s tripod:13',
'painter''s tripod:13','painter''s tripod:13',#1300,#1301,
'painter''s tripod:13');
#72=NEXT_ASSEMBLY_USAGE_OCCURRENCE('painter''s tripod:14',
'painter''s tripod:14','painter''s tripod:14',#1300,#1301,
'painter''s tripod:14');
#73=NEXT_ASSEMBLY_USAGE_OCCURRENCE('painter''s tripod:15',
'painter''s tripod:15','painter''s tripod:15',#1300,#1301,
'painter''s tripod:15');
#74=NEXT_ASSEMBLY_USAGE_OCCURRENCE('painter''s tripod:16',
'painter''s tripod:16','painter''s tripod:16',#1300,#1301,
'painter''s tripod:16');
#75=SHAPE_REPRESENTATION_RELATIONSHIP('SRR','None',#1298,#76);
#76=ADVANCED_BREP_SHAPE_REPRESENTATION('',(#78),#1271);
#77=STYLED_ITEM('',(#1312),#78);
#78=MANIFOLD_SOLID_BREP('Body1',#732);
#79=CIRCLE('',#809,1.);
#80=CIRCLE('',#810,1.);
#81=CIRCLE('',#811,1.);
#82=SPHERICAL_SURFACE('',#808,1.);
#83=FACE_BOUND('',#151,.T.);
#84=FACE_BOUND('',#153,.T.);
#85=FACE_BOUND('',#155,.T.);
#86=FACE_BOUND('',#172,.T.);
#87=FACE_BOUND('',#178,.T.);
#88=FACE_BOUND('',#184,.T.);
#89=FACE_BOUND('',#190,.T.);
#90=PLANE('',#753);
#91=PLANE('',#754);
#92=PLANE('',#755);
#93=PLANE('',#765);
#94=PLANE('',#766);
#95=PLANE('',#773);
#96=PLANE('',#774);
#97=PLANE('',#781);
#98=PLANE('',#782);
#99=PLANE('',#783);
#100=PLANE('',#790);
#101=PLANE('',#791);
#102=PLANE('',#798);
#103=PLANE('',#799);
#104=PLANE('',#806);
#105=PLANE('',#807);
#106=FACE_OUTER_BOUND('',#147,.T.);
#107=FACE_OUTER_BOUND('',#148,.T.);
#108=FACE_OUTER_BOUND('',#149,.T.);
#109=FACE_OUTER_BOUND('',#150,.T.);
#110=FACE_OUTER_BOUND('',#152,.T.);
#111=FACE_OUTER_BOUND('',#154,.T.);
#112=FACE_OUTER_BOUND('',#156,.T.);
#113=FACE_OUTER_BOUND('',#157,.T.);
#114=FACE_OUTER_BOUND('',#158,.T.);
#115=FACE_OUTER_BOUND('',#159,.T.);
#116=FACE_OUTER_BOUND('',#160,.T.);
#117=FACE_OUTER_BOUND('',#161,.T.);
#118=FACE_OUTER_BOUND('',#162,.T.);
#119=FACE_OUTER_BOUND('',#163,.T.);
#120=FACE_OUTER_BOUND('',#164,.T.);
#121=FACE_OUTER_BOUND('',#165,.T.);
#122=FACE_OUTER_BOUND('',#166,.T.);
#123=FACE_OUTER_BOUND('',#167,.T.);
#124=FACE_OUTER_BOUND('',#168,.T.);
#125=FACE_OUTER_BOUND('',#169,.T.);
#126=FACE_OUTER_BOUND('',#170,.T.);
#127=FACE_OUTER_BOUND('',#171,.T.);
#128=FACE_OUTER_BOUND('',#173,.T.);
#129=FACE_OUTER_BOUND('',#174,.T.);
#130=FACE_OUTER_BOUND('',#175,.T.);
#131=FACE_OUTER_BOUND('',#176,.T.);
#132=FACE_OUTER_BOUND('',#177,.T.);
#133=FACE_OUTER_BOUND('',#179,.T.);
#134=FACE_OUTER_BOUND('',#180,.T.);
#135=FACE_OUTER_BOUND('',#181,.T.);
#136=FACE_OUTER_BOUND('',#182,.T.);
#137=FACE_OUTER_BOUND('',#183,.T.);
#138=FACE_OUTER_BOUND('',#185,.T.);
#139=FACE_OUTER_BOUND('',#186,.T.);
#140=FACE_OUTER_BOUND('',#187,.T.);
#141=FACE_OUTER_BOUND('',#188,.T.);
#142=FACE_OUTER_BOUND('',#189,.T.);
#143=FACE_OUTER_BOUND('',#191,.T.);
#144=FACE_OUTER_BOUND('',#192,.T.);
#145=FACE_OUTER_BOUND('',#193,.T.);
#146=FACE_OUTER_BOUND('',#194,.T.);
#147=EDGE_LOOP('',(#487,#488,#489,#490));
#148=EDGE_LOOP('',(#491,#492,#493,#494));
#149=EDGE_LOOP('',(#495,#496,#497,#498));
#150=EDGE_LOOP('',(#499,#500,#501));
#151=EDGE_LOOP('',(#502,#503,#504));
#152=EDGE_LOOP('',(#505,#506,#507));
#153=EDGE_LOOP('',(#508,#509,#510));
#154=EDGE_LOOP('',(#511,#512,#513,#514,#515,#516));
#155=EDGE_LOOP('',(#517,#518,#519));
#156=EDGE_LOOP('',(#520,#521,#522,#523));
#157=EDGE_LOOP('',(#524,#525,#526,#527));
#158=EDGE_LOOP('',(#528,#529,#530,#531));
#159=EDGE_LOOP('',(#532,#533,#534,#535));
#160=EDGE_LOOP('',(#536,#537,#538,#539));
#161=EDGE_LOOP('',(#540,#541,#542,#543));
#162=EDGE_LOOP('',(#544,#545,#546,#547));
#163=EDGE_LOOP('',(#548,#549,#550,#551));
#164=EDGE_LOOP('',(#552,#553,#554,#555));
#165=EDGE_LOOP('',(#556,#557,#558,#559));
#166=EDGE_LOOP('',(#560,#561,#562,#563));
#167=EDGE_LOOP('',(#564,#565,#566,#567));
#168=EDGE_LOOP('',(#568,#569,#570,#571));
#169=EDGE_LOOP('',(#572,#573,#574,#575));
#170=EDGE_LOOP('',(#576,#577,#578,#579));
#171=EDGE_LOOP('',(#580,#581,#582));
#172=EDGE_LOOP('',(#583,#584,#585));
#173=EDGE_LOOP('',(#586,#587,#588,#589));
#174=EDGE_LOOP('',(#590,#591,#592,#593));
#175=EDGE_LOOP('',(#594,#595,#596,#597));
#176=EDGE_LOOP('',(#598,#599,#600,#601));
#177=EDGE_LOOP('',(#602,#603,#604));
#178=EDGE_LOOP('',(#605,#606,#607));
#179=EDGE_LOOP('',(#608,#609,#610,#611));
#180=EDGE_LOOP('',(#612,#613,#614,#615));
#181=EDGE_LOOP('',(#616,#617,#618,#619));
#182=EDGE_LOOP('',(#620,#621,#622,#623));
#183=EDGE_LOOP('',(#624,#625,#626));
#184=EDGE_LOOP('',(#627,#628,#629));
#185=EDGE_LOOP('',(#630,#631,#632,#633));
#186=EDGE_LOOP('',(#634,#635,#636,#637));
#187=EDGE_LOOP('',(#638,#639,#640,#641));
#188=EDGE_LOOP('',(#642,#643,#644,#645));
#189=EDGE_LOOP('',(#646,#647,#648));
#190=EDGE_LOOP('',(#649,#650,#651));
#191=EDGE_LOOP('',(#652,#653,#654));
#192=EDGE_LOOP('',(#655,#656,#657,#658));
#193=EDGE_LOOP('',(#659,#660,#661,#662));
#194=EDGE_LOOP('',(#663,#664,#665,#666));
#195=ELLIPSE('',#748,0.999999999999999,0.5);
#196=ELLIPSE('',#749,1.00000000000001,0.5);
#197=ELLIPSE('',#751,1.,0.5);
#198=ELLIPSE('',#756,1.22474487139159,1.);
#199=ELLIPSE('',#757,1.22474487139159,1.);
#200=ELLIPSE('',#758,1.22474487139159,1.);
#201=ELLIPSE('',#760,0.999999999999997,0.5);
#202=ELLIPSE('',#761,1.,0.5);
#203=ELLIPSE('',#763,0.999999999999998,0.5);
#204=ELLIPSE('',#768,0.999999999999998,0.5);
#205=ELLIPSE('',#769,0.999999999999998,0.5);
#206=ELLIPSE('',#771,0.999999999999993,0.5);
#207=ELLIPSE('',#776,1.,0.5);
#208=ELLIPSE('',#777,0.999999999999992,0.5);
#209=ELLIPSE('',#779,1.,0.5);
#210=ELLIPSE('',#785,0.999999999999994,0.5);
#211=ELLIPSE('',#786,1.00000000000001,0.5);
#212=ELLIPSE('',#788,0.999999999999997,0.5);
#213=ELLIPSE('',#793,0.999999999999998,0.5);
#214=ELLIPSE('',#794,1.,0.5);
#215=ELLIPSE('',#796,0.999999999999998,0.5);
#216=ELLIPSE('',#801,0.999999999999993,0.5);
#217=ELLIPSE('',#802,1.,0.5);
#218=ELLIPSE('',#804,0.999999999999991,0.5);
#219=LINE('',#1071,#282);
#220=LINE('',#1075,#283);
#221=LINE('',#1079,#284);
#222=LINE('',#1082,#285);
#223=LINE('',#1084,#286);
#224=LINE('',#1085,#287);
#225=LINE('',#1088,#288);
#226=LINE('',#1089,#289);
#227=LINE('',#1092,#290);
#228=LINE('',#1094,#291);
#229=LINE('',#1095,#292);
#230=LINE('',#1097,#293);
#231=LINE('',#1100,#294);
#232=LINE('',#1102,#295);
#233=LINE('',#1103,#296);
#234=LINE('',#1109,#297);
#235=LINE('',#1113,#298);
#236=LINE('',#1116,#299);
#237=LINE('',#1121,#300);
#238=LINE('',#1125,#301);
#239=LINE('',#1128,#302);
#240=LINE('',#1131,#303);
#241=LINE('',#1133,#304);
#242=LINE('',#1134,#305);
#243=LINE('',#1137,#306);
#244=LINE('',#1138,#307);
#245=LINE('',#1142,#308);
#246=LINE('',#1147,#309);
#247=LINE('',#1150,#310);
#248=LINE('',#1153,#311);
#249=LINE('',#1155,#312);
#250=LINE('',#1156,#313);
#251=LINE('',#1159,#314);
#252=LINE('',#1160,#315);
#253=LINE('',#1164,#316);
#254=LINE('',#1168,#317);
#255=LINE('',#1172,#318);
#256=LINE('',#1174,#319);
#257=LINE('',#1177,#320);
#258=LINE('',#1178,#321);
#259=LINE('',#1181,#322);
#260=LINE('',#1183,#323);
#261=LINE('',#1184,#324);
#262=LINE('',#1187,#325);
#263=LINE('',#1188,#326);
#264=LINE('',#1194,#327);
#265=LINE('',#1198,#328);
#266=LINE('',#1201,#329);
#267=LINE('',#1202,#330);
#268=LINE('',#1206,#331);
#269=LINE('',#1207,#332);
#270=LINE('',#1211,#333);
#271=LINE('',#1216,#334);
#272=LINE('',#1219,#335);
#273=LINE('',#1220,#336);
#274=LINE('',#1224,#337);
#275=LINE('',#1225,#338);
#276=LINE('',#1230,#339);
#277=LINE('',#1234,#340);
#278=LINE('',#1237,#341);
#279=LINE('',#1238,#342);
#280=LINE('',#1242,#343);
#281=LINE('',#1243,#344);
#282=VECTOR('',#837,10.);
#283=VECTOR('',#840,10.);
#284=VECTOR('',#845,10.);
#285=VECTOR('',#848,10.);
#286=VECTOR('',#851,10.);
#287=VECTOR('',#852,10.);
#288=VECTOR('',#855,10.);
#289=VECTOR('',#856,10.);
#290=VECTOR('',#857,10.);
#291=VECTOR('',#858,10.);
#292=VECTOR('',#859,10.);
#293=VECTOR('',#862,10.);
#294=VECTOR('',#863,10.);
#295=VECTOR('',#864,10.);
#296=VECTOR('',#865,10.);
#297=VECTOR('',#870,10.);
#298=VECTOR('',#873,10.);
#299=VECTOR('',#876,10.);
#300=VECTOR('',#881,10.);
#301=VECTOR('',#886,10.);
#302=VECTOR('',#891,10.);
#303=VECTOR('',#894,10.);
#304=VECTOR('',#895,10.);
#305=VECTOR('',#896,10.);
#306=VECTOR('',#899,10.);
#307=VECTOR('',#900,10.);
#308=VECTOR('',#903,10.);
#309=VECTOR('',#910,10.);
#310=VECTOR('',#915,10.);
#311=VECTOR('',#918,10.);
#312=VECTOR('',#919,10.);
#313=VECTOR('',#920,10.);
#314=VECTOR('',#923,10.);
#315=VECTOR('',#924,10.);
#316=VECTOR('',#927,10.);
#317=VECTOR('',#930,10.);
#318=VECTOR('',#935,10.);
#319=VECTOR('',#936,10.);
#320=VECTOR('',#941,10.);
#321=VECTOR('',#942,10.);
#322=VECTOR('',#945,10.);
#323=VECTOR('',#946,10.);
#324=VECTOR('',#947,10.);
#325=VECTOR('',#950,10.);
#326=VECTOR('',#951,10.);
#327=VECTOR('',#958,10.);
#328=VECTOR('',#963,10.);
#329=VECTOR('',#968,10.);
#330=VECTOR('',#969,10.);
#331=VECTOR('',#974,10.);
#332=VECTOR('',#975,10.);
#333=VECTOR('',#978,10.);
#334=VECTOR('',#985,10.);
#335=VECTOR('',#990,10.);
#336=VECTOR('',#991,10.);
#337=VECTOR('',#996,10.);
#338=VECTOR('',#997,10.);
#339=VECTOR('',#1002,10.);
#340=VECTOR('',#1007,10.);
#341=VECTOR('',#1012,10.);
#342=VECTOR('',#1013,10.);
#343=VECTOR('',#1018,10.);
#344=VECTOR('',#1019,10.);
#345=VERTEX_POINT('',#1069);
#346=VERTEX_POINT('',#1070);
#347=VERTEX_POINT('',#1072);
#348=VERTEX_POINT('',#1074);
#349=VERTEX_POINT('',#1078);
#350=VERTEX_POINT('',#1080);
#351=VERTEX_POINT('',#1087);
#352=VERTEX_POINT('',#1090);
#353=VERTEX_POINT('',#1091);
#354=VERTEX_POINT('',#1093);
#355=VERTEX_POINT('',#1098);
#356=VERTEX_POINT('',#1099);
#357=VERTEX_POINT('',#1101);
#358=VERTEX_POINT('',#1105);
#359=VERTEX_POINT('',#1106);
#360=VERTEX_POINT('',#1108);
#361=VERTEX_POINT('',#1110);
#362=VERTEX_POINT('',#1112);
#363=VERTEX_POINT('',#1114);
#364=VERTEX_POINT('',#1118);
#365=VERTEX_POINT('',#1120);
#366=VERTEX_POINT('',#1124);
#367=VERTEX_POINT('',#1130);
#368=VERTEX_POINT('',#1132);
#369=VERTEX_POINT('',#1136);
#370=VERTEX_POINT('',#1140);
#371=VERTEX_POINT('',#1141);
#372=VERTEX_POINT('',#1146);
#373=VERTEX_POINT('',#1152);
#374=VERTEX_POINT('',#1154);
#375=VERTEX_POINT('',#1158);
#376=VERTEX_POINT('',#1162);
#377=VERTEX_POINT('',#1163);
#378=VERTEX_POINT('',#1165);
#379=VERTEX_POINT('',#1167);
#380=VERTEX_POINT('',#1171);
#381=VERTEX_POINT('',#1173);
#382=VERTEX_POINT('',#1180);
#383=VERTEX_POINT('',#1182);
#384=VERTEX_POINT('',#1186);
#385=VERTEX_POINT('',#1191);
#386=VERTEX_POINT('',#1193);
#387=VERTEX_POINT('',#1197);
#388=VERTEX_POINT('',#1205);
#389=VERTEX_POINT('',#1209);
#390=VERTEX_POINT('',#1210);
#391=VERTEX_POINT('',#1215);
#392=VERTEX_POINT('',#1223);
#393=VERTEX_POINT('',#1227);
#394=VERTEX_POINT('',#1229);
#395=VERTEX_POINT('',#1233);
#396=VERTEX_POINT('',#1241);
#397=EDGE_CURVE('',#345,#346,#219,.T.);
#398=EDGE_CURVE('',#346,#347,#195,.T.);
#399=EDGE_CURVE('',#347,#348,#220,.T.);
#400=EDGE_CURVE('',#348,#345,#196,.T.);
#401=EDGE_CURVE('',#348,#349,#221,.T.);
#402=EDGE_CURVE('',#349,#350,#197,.T.);
#403=EDGE_CURVE('',#350,#345,#222,.T.);
#404=EDGE_CURVE('',#346,#350,#223,.T.);
#405=EDGE_CURVE('',#349,#347,#224,.T.);
#406=EDGE_CURVE('',#348,#351,#225,.T.);
#407=EDGE_CURVE('',#349,#351,#226,.T.);
#408=EDGE_CURVE('',#352,#353,#227,.T.);
#409=EDGE_CURVE('',#354,#352,#228,.T.);
#410=EDGE_CURVE('',#353,#354,#229,.T.);
#411=EDGE_CURVE('',#347,#351,#230,.F.);
#412=EDGE_CURVE('',#355,#356,#231,.T.);
#413=EDGE_CURVE('',#357,#355,#232,.T.);
#414=EDGE_CURVE('',#356,#357,#233,.T.);
#415=EDGE_CURVE('',#358,#359,#198,.T.);
#416=EDGE_CURVE('',#360,#358,#234,.T.);
#417=EDGE_CURVE('',#361,#360,#199,.T.);
#418=EDGE_CURVE('',#362,#361,#235,.T.);
#419=EDGE_CURVE('',#363,#362,#200,.T.);
#420=EDGE_CURVE('',#359,#363,#236,.T.);
#421=EDGE_CURVE('',#353,#364,#201,.T.);
#422=EDGE_CURVE('',#364,#365,#237,.T.);
#423=EDGE_CURVE('',#365,#352,#202,.T.);
#424=EDGE_CURVE('',#366,#364,#238,.T.);
#425=EDGE_CURVE('',#366,#354,#203,.T.);
#426=EDGE_CURVE('',#365,#366,#239,.T.);
#427=EDGE_CURVE('',#367,#365,#240,.T.);
#428=EDGE_CURVE('',#368,#367,#241,.T.);
#429=EDGE_CURVE('',#368,#366,#242,.T.);
#430=EDGE_CURVE('',#369,#364,#243,.T.);
#431=EDGE_CURVE('',#367,#369,#244,.T.);
#432=EDGE_CURVE('',#370,#371,#245,.T.);
#433=EDGE_CURVE('',#371,#355,#204,.T.);
#434=EDGE_CURVE('',#356,#370,#205,.T.);
#435=EDGE_CURVE('',#371,#372,#246,.T.);
#436=EDGE_CURVE('',#357,#372,#206,.T.);
#437=EDGE_CURVE('',#372,#370,#247,.T.);
#438=EDGE_CURVE('',#373,#371,#248,.T.);
#439=EDGE_CURVE('',#374,#373,#249,.T.);
#440=EDGE_CURVE('',#374,#372,#250,.T.);
#441=EDGE_CURVE('',#375,#370,#251,.T.);
#442=EDGE_CURVE('',#373,#375,#252,.T.);
#443=EDGE_CURVE('',#376,#377,#253,.T.);
#444=EDGE_CURVE('',#377,#378,#207,.T.);
#445=EDGE_CURVE('',#378,#379,#254,.T.);
#446=EDGE_CURVE('',#379,#376,#208,.T.);
#447=EDGE_CURVE('',#380,#378,#255,.T.);
#448=EDGE_CURVE('',#377,#381,#256,.T.);
#449=EDGE_CURVE('',#380,#381,#209,.T.);
#450=EDGE_CURVE('',#381,#376,#257,.T.);
#451=EDGE_CURVE('',#379,#380,#258,.T.);
#452=EDGE_CURVE('',#382,#377,#259,.T.);
#453=EDGE_CURVE('',#383,#382,#260,.T.);
#454=EDGE_CURVE('',#383,#381,#261,.T.);
#455=EDGE_CURVE('',#384,#376,#262,.T.);
#456=EDGE_CURVE('',#382,#384,#263,.T.);
#457=EDGE_CURVE('',#375,#385,#210,.T.);
#458=EDGE_CURVE('',#385,#386,#264,.T.);
#459=EDGE_CURVE('',#386,#373,#211,.T.);
#460=EDGE_CURVE('',#386,#387,#265,.T.);
#461=EDGE_CURVE('',#387,#374,#212,.T.);
#462=EDGE_CURVE('',#375,#374,#266,.T.);
#463=EDGE_CURVE('',#387,#385,#267,.T.);
#464=EDGE_CURVE('',#362,#388,#268,.T.);
#465=EDGE_CURVE('',#388,#361,#269,.T.);
#466=EDGE_CURVE('',#389,#390,#270,.T.);
#467=EDGE_CURVE('',#390,#367,#213,.T.);
#468=EDGE_CURVE('',#369,#389,#214,.T.);
#469=EDGE_CURVE('',#390,#391,#271,.T.);
#470=EDGE_CURVE('',#391,#368,#215,.T.);
#471=EDGE_CURVE('',#391,#389,#272,.T.);
#472=EDGE_CURVE('',#369,#368,#273,.T.);
#473=EDGE_CURVE('',#392,#358,#274,.T.);
#474=EDGE_CURVE('',#360,#392,#275,.T.);
#475=EDGE_CURVE('',#384,#393,#216,.T.);
#476=EDGE_CURVE('',#393,#394,#276,.T.);
#477=EDGE_CURVE('',#394,#382,#217,.T.);
#478=EDGE_CURVE('',#394,#395,#277,.T.);
#479=EDGE_CURVE('',#395,#383,#218,.T.);
#480=EDGE_CURVE('',#384,#383,#278,.T.);
#481=EDGE_CURVE('',#395,#393,#279,.T.);
#482=EDGE_CURVE('',#359,#396,#280,.T.);
#483=EDGE_CURVE('',#396,#363,#281,.T.);
#484=EDGE_CURVE('',#392,#388,#79,.F.);
#485=EDGE_CURVE('',#396,#392,#80,.F.);
#486=EDGE_CURVE('',#388,#396,#81,.F.);
#487=ORIENTED_EDGE('',*,*,#397,.T.);
#488=ORIENTED_EDGE('',*,*,#398,.T.);
#489=ORIENTED_EDGE('',*,*,#399,.T.);
#490=ORIENTED_EDGE('',*,*,#400,.T.);
#491=ORIENTED_EDGE('',*,*,#401,.T.);
#492=ORIENTED_EDGE('',*,*,#402,.T.);
#493=ORIENTED_EDGE('',*,*,#403,.T.);
#494=ORIENTED_EDGE('',*,*,#400,.F.);
#495=ORIENTED_EDGE('',*,*,#404,.T.);
#496=ORIENTED_EDGE('',*,*,#402,.F.);
#497=ORIENTED_EDGE('',*,*,#405,.T.);
#498=ORIENTED_EDGE('',*,*,#398,.F.);
#499=ORIENTED_EDGE('',*,*,#401,.F.);
#500=ORIENTED_EDGE('',*,*,#406,.T.);
#501=ORIENTED_EDGE('',*,*,#407,.F.);
#502=ORIENTED_EDGE('',*,*,#408,.F.);
#503=ORIENTED_EDGE('',*,*,#409,.F.);
#504=ORIENTED_EDGE('',*,*,#410,.F.);
#505=ORIENTED_EDGE('',*,*,#399,.F.);
#506=ORIENTED_EDGE('',*,*,#411,.T.);
#507=ORIENTED_EDGE('',*,*,#406,.F.);
#508=ORIENTED_EDGE('',*,*,#412,.F.);
#509=ORIENTED_EDGE('',*,*,#413,.F.);
#510=ORIENTED_EDGE('',*,*,#414,.F.);
#511=ORIENTED_EDGE('',*,*,#415,.F.);
#512=ORIENTED_EDGE('',*,*,#416,.F.);
#513=ORIENTED_EDGE('',*,*,#417,.F.);
#514=ORIENTED_EDGE('',*,*,#418,.F.);
#515=ORIENTED_EDGE('',*,*,#419,.F.);
#516=ORIENTED_EDGE('',*,*,#420,.F.);
#517=ORIENTED_EDGE('',*,*,#397,.F.);
#518=ORIENTED_EDGE('',*,*,#403,.F.);
#519=ORIENTED_EDGE('',*,*,#404,.F.);
#520=ORIENTED_EDGE('',*,*,#408,.T.);
#521=ORIENTED_EDGE('',*,*,#421,.T.);
#522=ORIENTED_EDGE('',*,*,#422,.T.);
#523=ORIENTED_EDGE('',*,*,#423,.T.);
#524=ORIENTED_EDGE('',*,*,#424,.T.);
#525=ORIENTED_EDGE('',*,*,#421,.F.);
#526=ORIENTED_EDGE('',*,*,#410,.T.);
#527=ORIENTED_EDGE('',*,*,#425,.F.);
#528=ORIENTED_EDGE('',*,*,#409,.T.);
#529=ORIENTED_EDGE('',*,*,#423,.F.);
#530=ORIENTED_EDGE('',*,*,#426,.T.);
#531=ORIENTED_EDGE('',*,*,#425,.T.);
#532=ORIENTED_EDGE('',*,*,#426,.F.);
#533=ORIENTED_EDGE('',*,*,#427,.F.);
#534=ORIENTED_EDGE('',*,*,#428,.F.);
#535=ORIENTED_EDGE('',*,*,#429,.T.);
#536=ORIENTED_EDGE('',*,*,#422,.F.);
#537=ORIENTED_EDGE('',*,*,#430,.F.);
#538=ORIENTED_EDGE('',*,*,#431,.F.);
#539=ORIENTED_EDGE('',*,*,#427,.T.);
#540=ORIENTED_EDGE('',*,*,#432,.T.);
#541=ORIENTED_EDGE('',*,*,#433,.T.);
#542=ORIENTED_EDGE('',*,*,#412,.T.);
#543=ORIENTED_EDGE('',*,*,#434,.T.);
#544=ORIENTED_EDGE('',*,*,#413,.T.);
#545=ORIENTED_EDGE('',*,*,#433,.F.);
#546=ORIENTED_EDGE('',*,*,#435,.T.);
#547=ORIENTED_EDGE('',*,*,#436,.F.);
#548=ORIENTED_EDGE('',*,*,#437,.T.);
#549=ORIENTED_EDGE('',*,*,#434,.F.);
#550=ORIENTED_EDGE('',*,*,#414,.T.);
#551=ORIENTED_EDGE('',*,*,#436,.T.);
#552=ORIENTED_EDGE('',*,*,#435,.F.);
#553=ORIENTED_EDGE('',*,*,#438,.F.);
#554=ORIENTED_EDGE('',*,*,#439,.F.);
#555=ORIENTED_EDGE('',*,*,#440,.T.);
#556=ORIENTED_EDGE('',*,*,#432,.F.);
#557=ORIENTED_EDGE('',*,*,#441,.F.);
#558=ORIENTED_EDGE('',*,*,#442,.F.);
#559=ORIENTED_EDGE('',*,*,#438,.T.);
#560=ORIENTED_EDGE('',*,*,#443,.T.);
#561=ORIENTED_EDGE('',*,*,#444,.T.);
#562=ORIENTED_EDGE('',*,*,#445,.T.);
#563=ORIENTED_EDGE('',*,*,#446,.T.);
#564=ORIENTED_EDGE('',*,*,#447,.T.);
#565=ORIENTED_EDGE('',*,*,#444,.F.);
#566=ORIENTED_EDGE('',*,*,#448,.T.);
#567=ORIENTED_EDGE('',*,*,#449,.F.);
#568=ORIENTED_EDGE('',*,*,#450,.T.);
#569=ORIENTED_EDGE('',*,*,#446,.F.);
#570=ORIENTED_EDGE('',*,*,#451,.T.);
#571=ORIENTED_EDGE('',*,*,#449,.T.);
#572=ORIENTED_EDGE('',*,*,#448,.F.);
#573=ORIENTED_EDGE('',*,*,#452,.F.);
#574=ORIENTED_EDGE('',*,*,#453,.F.);
#575=ORIENTED_EDGE('',*,*,#454,.T.);
#576=ORIENTED_EDGE('',*,*,#443,.F.);
#577=ORIENTED_EDGE('',*,*,#455,.F.);
#578=ORIENTED_EDGE('',*,*,#456,.F.);
#579=ORIENTED_EDGE('',*,*,#452,.T.);
#580=ORIENTED_EDGE('',*,*,#405,.F.);
#581=ORIENTED_EDGE('',*,*,#407,.T.);
#582=ORIENTED_EDGE('',*,*,#411,.F.);
#583=ORIENTED_EDGE('',*,*,#445,.F.);
#584=ORIENTED_EDGE('',*,*,#447,.F.);
#585=ORIENTED_EDGE('',*,*,#451,.F.);
#586=ORIENTED_EDGE('',*,*,#442,.T.);
#587=ORIENTED_EDGE('',*,*,#457,.T.);
#588=ORIENTED_EDGE('',*,*,#458,.T.);
#589=ORIENTED_EDGE('',*,*,#459,.T.);
#590=ORIENTED_EDGE('',*,*,#460,.T.);
#591=ORIENTED_EDGE('',*,*,#461,.T.);
#592=ORIENTED_EDGE('',*,*,#439,.T.);
#593=ORIENTED_EDGE('',*,*,#459,.F.);
#594=ORIENTED_EDGE('',*,*,#462,.T.);
#595=ORIENTED_EDGE('',*,*,#461,.F.);
#596=ORIENTED_EDGE('',*,*,#463,.T.);
#597=ORIENTED_EDGE('',*,*,#457,.F.);
#598=ORIENTED_EDGE('',*,*,#437,.F.);
#599=ORIENTED_EDGE('',*,*,#440,.F.);
#600=ORIENTED_EDGE('',*,*,#462,.F.);
#601=ORIENTED_EDGE('',*,*,#441,.T.);
#602=ORIENTED_EDGE('',*,*,#464,.F.);
#603=ORIENTED_EDGE('',*,*,#418,.T.);
#604=ORIENTED_EDGE('',*,*,#465,.F.);
#605=ORIENTED_EDGE('',*,*,#458,.F.);
#606=ORIENTED_EDGE('',*,*,#463,.F.);
#607=ORIENTED_EDGE('',*,*,#460,.F.);
#608=ORIENTED_EDGE('',*,*,#466,.T.);
#609=ORIENTED_EDGE('',*,*,#467,.T.);
#610=ORIENTED_EDGE('',*,*,#431,.T.);
#611=ORIENTED_EDGE('',*,*,#468,.T.);
#612=ORIENTED_EDGE('',*,*,#428,.T.);
#613=ORIENTED_EDGE('',*,*,#467,.F.);
#614=ORIENTED_EDGE('',*,*,#469,.T.);
#615=ORIENTED_EDGE('',*,*,#470,.T.);
#616=ORIENTED_EDGE('',*,*,#471,.T.);
#617=ORIENTED_EDGE('',*,*,#468,.F.);
#618=ORIENTED_EDGE('',*,*,#472,.T.);
#619=ORIENTED_EDGE('',*,*,#470,.F.);
#620=ORIENTED_EDGE('',*,*,#424,.F.);
#621=ORIENTED_EDGE('',*,*,#429,.F.);
#622=ORIENTED_EDGE('',*,*,#472,.F.);
#623=ORIENTED_EDGE('',*,*,#430,.T.);
#624=ORIENTED_EDGE('',*,*,#473,.F.);
#625=ORIENTED_EDGE('',*,*,#474,.F.);
#626=ORIENTED_EDGE('',*,*,#416,.T.);
#627=ORIENTED_EDGE('',*,*,#466,.F.);
#628=ORIENTED_EDGE('',*,*,#471,.F.);
#629=ORIENTED_EDGE('',*,*,#469,.F.);
#630=ORIENTED_EDGE('',*,*,#456,.T.);
#631=ORIENTED_EDGE('',*,*,#475,.T.);
#632=ORIENTED_EDGE('',*,*,#476,.T.);
#633=ORIENTED_EDGE('',*,*,#477,.T.);
#634=ORIENTED_EDGE('',*,*,#478,.T.);
#635=ORIENTED_EDGE('',*,*,#479,.T.);
#636=ORIENTED_EDGE('',*,*,#453,.T.);
#637=ORIENTED_EDGE('',*,*,#477,.F.);
#638=ORIENTED_EDGE('',*,*,#480,.T.);
#639=ORIENTED_EDGE('',*,*,#479,.F.);
#640=ORIENTED_EDGE('',*,*,#481,.T.);
#641=ORIENTED_EDGE('',*,*,#475,.F.);
#642=ORIENTED_EDGE('',*,*,#450,.F.);
#643=ORIENTED_EDGE('',*,*,#454,.F.);
#644=ORIENTED_EDGE('',*,*,#480,.F.);
#645=ORIENTED_EDGE('',*,*,#455,.T.);
#646=ORIENTED_EDGE('',*,*,#482,.F.);
#647=ORIENTED_EDGE('',*,*,#420,.T.);
#648=ORIENTED_EDGE('',*,*,#483,.F.);
#649=ORIENTED_EDGE('',*,*,#476,.F.);
#650=ORIENTED_EDGE('',*,*,#481,.F.);
#651=ORIENTED_EDGE('',*,*,#478,.F.);
#652=ORIENTED_EDGE('',*,*,#484,.F.);
#653=ORIENTED_EDGE('',*,*,#485,.F.);
#654=ORIENTED_EDGE('',*,*,#486,.F.);
#655=ORIENTED_EDGE('',*,*,#415,.T.);
#656=ORIENTED_EDGE('',*,*,#482,.T.);
#657=ORIENTED_EDGE('',*,*,#485,.T.);
#658=ORIENTED_EDGE('',*,*,#473,.T.);
#659=ORIENTED_EDGE('',*,*,#419,.T.);
#660=ORIENTED_EDGE('',*,*,#464,.T.);
#661=ORIENTED_EDGE('',*,*,#486,.T.);
#662=ORIENTED_EDGE('',*,*,#483,.T.);
#663=ORIENTED_EDGE('',*,*,#417,.T.);
#664=ORIENTED_EDGE('',*,*,#474,.T.);
#665=ORIENTED_EDGE('',*,*,#484,.T.);
#666=ORIENTED_EDGE('',*,*,#465,.T.);
#667=CYLINDRICAL_SURFACE('',#747,0.5);
#668=CYLINDRICAL_SURFACE('',#750,0.5);
#669=CYLINDRICAL_SURFACE('',#752,0.5);
#670=CYLINDRICAL_SURFACE('',#759,0.5);
#671=CYLINDRICAL_SURFACE('',#762,0.5);
#672=CYLINDRICAL_SURFACE('',#764,0.5);
#673=CYLINDRICAL_SURFACE('',#767,0.5);
#674=CYLINDRICAL_SURFACE('',#770,0.5);
#675=CYLINDRICAL_SURFACE('',#772,0.5);
#676=CYLINDRICAL_SURFACE('',#775,0.5);
#677=CYLINDRICAL_SURFACE('',#778,0.5);
#678=CYLINDRICAL_SURFACE('',#780,0.5);
#679=CYLINDRICAL_SURFACE('',#784,0.5);
#680=CYLINDRICAL_SURFACE('',#787,0.5);
#681=CYLINDRICAL_SURFACE('',#789,0.5);
#682=CYLINDRICAL_SURFACE('',#792,0.5);
#683=CYLINDRICAL_SURFACE('',#795,0.5);
#684=CYLINDRICAL_SURFACE('',#797,0.5);
#685=CYLINDRICAL_SURFACE('',#800,0.5);
#686=CYLINDRICAL_SURFACE('',#803,0.5);
#687=CYLINDRICAL_SURFACE('',#805,0.5);
#688=CYLINDRICAL_SURFACE('',#812,1.);
#689=CYLINDRICAL_SURFACE('',#813,1.);
#690=CYLINDRICAL_SURFACE('',#814,1.);
#691=ADVANCED_FACE('',(#106),#667,.T.);
#692=ADVANCED_FACE('',(#107),#668,.T.);
#693=ADVANCED_FACE('',(#108),#669,.T.);
#694=ADVANCED_FACE('',(#109,#83),#90,.F.);
#695=ADVANCED_FACE('',(#110,#84),#91,.F.);
#696=ADVANCED_FACE('',(#111,#85),#92,.F.);
#697=ADVANCED_FACE('',(#112),#670,.T.);
#698=ADVANCED_FACE('',(#113),#671,.T.);
#699=ADVANCED_FACE('',(#114),#672,.T.);
#700=ADVANCED_FACE('',(#115),#93,.F.);
#701=ADVANCED_FACE('',(#116),#94,.F.);
#702=ADVANCED_FACE('',(#117),#673,.T.);
#703=ADVANCED_FACE('',(#118),#674,.T.);
#704=ADVANCED_FACE('',(#119),#675,.T.);
#705=ADVANCED_FACE('',(#120),#95,.F.);
#706=ADVANCED_FACE('',(#121),#96,.F.);
#707=ADVANCED_FACE('',(#122),#676,.T.);
#708=ADVANCED_FACE('',(#123),#677,.T.);
#709=ADVANCED_FACE('',(#124),#678,.T.);
#710=ADVANCED_FACE('',(#125),#97,.F.);
#711=ADVANCED_FACE('',(#126),#98,.F.);
#712=ADVANCED_FACE('',(#127,#86),#99,.F.);
#713=ADVANCED_FACE('',(#128),#679,.T.);
#714=ADVANCED_FACE('',(#129),#680,.T.);
#715=ADVANCED_FACE('',(#130),#681,.T.);
#716=ADVANCED_FACE('',(#131),#100,.F.);
#717=ADVANCED_FACE('',(#132,#87),#101,.T.);
#718=ADVANCED_FACE('',(#133),#682,.T.);
#719=ADVANCED_FACE('',(#134),#683,.T.);
#720=ADVANCED_FACE('',(#135),#684,.T.);
#721=ADVANCED_FACE('',(#136),#102,.F.);
#722=ADVANCED_FACE('',(#137,#88),#103,.T.);
#723=ADVANCED_FACE('',(#138),#685,.T.);
#724=ADVANCED_FACE('',(#139),#686,.T.);
#725=ADVANCED_FACE('',(#140),#687,.T.);
#726=ADVANCED_FACE('',(#141),#104,.F.);
#727=ADVANCED_FACE('',(#142,#89),#105,.T.);
#728=ADVANCED_FACE('',(#143),#82,.T.);
#729=ADVANCED_FACE('',(#144),#688,.T.);
#730=ADVANCED_FACE('',(#145),#689,.T.);
#731=ADVANCED_FACE('',(#146),#690,.T.);
#732=CLOSED_SHELL('',(#691,#692,#693,#694,#695,#696,#697,#698,#699,#700,
#701,#702,#703,#704,#705,#706,#707,#708,#709,#710,#711,#712,#713,#714,#715,
#716,#717,#718,#719,#720,#721,#722,#723,#724,#725,#726,#727,#728,#729,#730,
#731));
#733=DERIVED_UNIT_ELEMENT(#735,1.);
#734=DERIVED_UNIT_ELEMENT(#1274,-3.);
#735=(
MASS_UNIT()
NAMED_UNIT(*)
SI_UNIT(.KILO.,.GRAM.)
);
#736=DERIVED_UNIT((#733,#734));
#737=MEASURE_REPRESENTATION_ITEM('density measure',
POSITIVE_RATIO_MEASURE(7850.),#736);
#738=PROPERTY_DEFINITION_REPRESENTATION(#743,#740);
#739=PROPERTY_DEFINITION_REPRESENTATION(#744,#741);
#740=REPRESENTATION('material name',(#742),#1271);
#741=REPRESENTATION('density',(#737),#1271);
#742=DESCRIPTIVE_REPRESENTATION_ITEM('Steel','Steel');
#743=PROPERTY_DEFINITION('material property','material name',#1301);
#744=PROPERTY_DEFINITION('material property','density of part',#1301);
#745=AXIS2_PLACEMENT_3D('',#1066,#831,#832);
#746=AXIS2_PLACEMENT_3D('',#1067,#833,#834);
#747=AXIS2_PLACEMENT_3D('',#1068,#835,#836);
#748=AXIS2_PLACEMENT_3D('',#1073,#838,#839);
#749=AXIS2_PLACEMENT_3D('',#1076,#841,#842);
#750=AXIS2_PLACEMENT_3D('',#1077,#843,#844);
#751=AXIS2_PLACEMENT_3D('',#1081,#846,#847);
#752=AXIS2_PLACEMENT_3D('',#1083,#849,#850);
#753=AXIS2_PLACEMENT_3D('',#1086,#853,#854);
#754=AXIS2_PLACEMENT_3D('',#1096,#860,#861);
#755=AXIS2_PLACEMENT_3D('',#1104,#866,#867);
#756=AXIS2_PLACEMENT_3D('',#1107,#868,#869);
#757=AXIS2_PLACEMENT_3D('',#1111,#871,#872);
#758=AXIS2_PLACEMENT_3D('',#1115,#874,#875);
#759=AXIS2_PLACEMENT_3D('',#1117,#877,#878);
#760=AXIS2_PLACEMENT_3D('',#1119,#879,#880);
#761=AXIS2_PLACEMENT_3D('',#1122,#882,#883);
#762=AXIS2_PLACEMENT_3D('',#1123,#884,#885);
#763=AXIS2_PLACEMENT_3D('',#1126,#887,#888);
#764=AXIS2_PLACEMENT_3D('',#1127,#889,#890);
#765=AXIS2_PLACEMENT_3D('',#1129,#892,#893);
#766=AXIS2_PLACEMENT_3D('',#1135,#897,#898);
#767=AXIS2_PLACEMENT_3D('',#1139,#901,#902);
#768=AXIS2_PLACEMENT_3D('',#1143,#904,#905);
#769=AXIS2_PLACEMENT_3D('',#1144,#906,#907);
#770=AXIS2_PLACEMENT_3D('',#1145,#908,#909);
#771=AXIS2_PLACEMENT_3D('',#1148,#911,#912);
#772=AXIS2_PLACEMENT_3D('',#1149,#913,#914);
#773=AXIS2_PLACEMENT_3D('',#1151,#916,#917);
#774=AXIS2_PLACEMENT_3D('',#1157,#921,#922);
#775=AXIS2_PLACEMENT_3D('',#1161,#925,#926);
#776=AXIS2_PLACEMENT_3D('',#1166,#928,#929);
#777=AXIS2_PLACEMENT_3D('',#1169,#931,#932);
#778=AXIS2_PLACEMENT_3D('',#1170,#933,#934);
#779=AXIS2_PLACEMENT_3D('',#1175,#937,#938);
#780=AXIS2_PLACEMENT_3D('',#1176,#939,#940);
#781=AXIS2_PLACEMENT_3D('',#1179,#943,#944);
#782=AXIS2_PLACEMENT_3D('',#1185,#948,#949);
#783=AXIS2_PLACEMENT_3D('',#1189,#952,#953);
#784=AXIS2_PLACEMENT_3D('',#1190,#954,#955);
#785=AXIS2_PLACEMENT_3D('',#1192,#956,#957);
#786=AXIS2_PLACEMENT_3D('',#1195,#959,#960);
#787=AXIS2_PLACEMENT_3D('',#1196,#961,#962);
#788=AXIS2_PLACEMENT_3D('',#1199,#964,#965);
#789=AXIS2_PLACEMENT_3D('',#1200,#966,#967);
#790=AXIS2_PLACEMENT_3D('',#1203,#970,#971);
#791=AXIS2_PLACEMENT_3D('',#1204,#972,#973);
#792=AXIS2_PLACEMENT_3D('',#1208,#976,#977);
#793=AXIS2_PLACEMENT_3D('',#1212,#979,#980);
#794=AXIS2_PLACEMENT_3D('',#1213,#981,#982);
#795=AXIS2_PLACEMENT_3D('',#1214,#983,#984);
#796=AXIS2_PLACEMENT_3D('',#1217,#986,#987);
#797=AXIS2_PLACEMENT_3D('',#1218,#988,#989);
#798=AXIS2_PLACEMENT_3D('',#1221,#992,#993);
#799=AXIS2_PLACEMENT_3D('',#1222,#994,#995);
#800=AXIS2_PLACEMENT_3D('',#1226,#998,#999);
#801=AXIS2_PLACEMENT_3D('',#1228,#1000,#1001);
#802=AXIS2_PLACEMENT_3D('',#1231,#1003,#1004);
#803=AXIS2_PLACEMENT_3D('',#1232,#1005,#1006);
#804=AXIS2_PLACEMENT_3D('',#1235,#1008,#1009);
#805=AXIS2_PLACEMENT_3D('',#1236,#1010,#1011);
#806=AXIS2_PLACEMENT_3D('',#1239,#1014,#1015);
#807=AXIS2_PLACEMENT_3D('',#1240,#1016,#1017);
#808=AXIS2_PLACEMENT_3D('',#1244,#1020,#1021);
#809=AXIS2_PLACEMENT_3D('',#1245,#1022,#1023);
#810=AXIS2_PLACEMENT_3D('',#1246,#1024,#1025);
#811=AXIS2_PLACEMENT_3D('',#1247,#1026,#1027);
#812=AXIS2_PLACEMENT_3D('',#1248,#1028,#1029);
#813=AXIS2_PLACEMENT_3D('',#1249,#1030,#1031);
#814=AXIS2_PLACEMENT_3D('',#1250,#1032,#1033);
#815=AXIS2_PLACEMENT_3D('',#1251,#1034,#1035);
#816=AXIS2_PLACEMENT_3D('',#1252,#1036,#1037);
#817=AXIS2_PLACEMENT_3D('',#1253,#1038,#1039);
#818=AXIS2_PLACEMENT_3D('',#1254,#1040,#1041);
#819=AXIS2_PLACEMENT_3D('',#1255,#1042,#1043);
#820=AXIS2_PLACEMENT_3D('',#1256,#1044,#1045);
#821=AXIS2_PLACEMENT_3D('',#1257,#1046,#1047);
#822=AXIS2_PLACEMENT_3D('',#1258,#1048,#1049);
#823=AXIS2_PLACEMENT_3D('',#1259,#1050,#1051);
#824=AXIS2_PLACEMENT_3D('',#1260,#1052,#1053);
#825=AXIS2_PLACEMENT_3D('',#1261,#1054,#1055);
#826=AXIS2_PLACEMENT_3D('',#1262,#1056,#1057);
#827=AXIS2_PLACEMENT_3D('',#1263,#1058,#1059);
#828=AXIS2_PLACEMENT_3D('',#1264,#1060,#1061);
#829=AXIS2_PLACEMENT_3D('',#1265,#1062,#1063);
#830=AXIS2_PLACEMENT_3D('',#1266,#1064,#1065);
#831=DIRECTION('axis',(0.,0.,1.));
#832=DIRECTION('refdir',(1.,0.,0.));
#833=DIRECTION('axis',(0.,0.,1.));
#834=DIRECTION('refdir',(1.,0.,0.));
#835=DIRECTION('center_axis',(-0.5,0.,0.866025403784439));
#836=DIRECTION('ref_axis',(0.499999999999999,-0.816496580927726,0.288675134594816));
#837=DIRECTION('',(0.5,0.,-0.866025403784439));
#838=DIRECTION('center_axis',(-1.,6.66133814775093E-15,4.89314019101056E-16));
#839=DIRECTION('ref_axis',(-4.8931401910103E-16,3.84592537276713E-15,-1.));
#840=DIRECTION('',(-0.5,-1.85037170770859E-17,0.866025403784439));
#841=DIRECTION('center_axis',(-0.500000000000002,3.84592537276712E-15,-0.866025403784437));
#842=DIRECTION('ref_axis',(0.866025403784437,-2.22044604925029E-15,-0.500000000000002));
#843=DIRECTION('center_axis',(1.,0.,2.66453525910038E-16));
#844=DIRECTION('ref_axis',(0.,-0.816496580927726,-0.577350269189626));
#845=DIRECTION('',(1.,0.,2.66453525910038E-16));
#846=DIRECTION('center_axis',(-0.499999999999999,-3.84592537276713E-15,
0.866025403784439));
#847=DIRECTION('ref_axis',(-0.866025403784439,2.22044604925031E-15,-0.499999999999999));
#848=DIRECTION('',(-1.,0.,-2.66453525910038E-16));
#849=DIRECTION('center_axis',(-0.5,0.,-0.866025403784439));
#850=DIRECTION('ref_axis',(-0.500000000000001,-0.816496580927726,0.288675134594813));
#851=DIRECTION('',(0.5,0.,0.866025403784439));
#852=DIRECTION('',(-0.5,1.85037170770859E-17,-0.866025403784439));
#853=DIRECTION('center_axis',(-2.51214793389404E-16,0.333333333333333,0.942809041582063));
#854=DIRECTION('ref_axis',(1.,0.,2.66453525910038E-16));
#855=DIRECTION('',(0.5,0.816496580927726,-0.288675134594813));
#856=DIRECTION('',(-0.5,0.816496580927726,-0.288675134594813));
#857=DIRECTION('',(-1.,2.38713520449171E-16,-3.50851500445299E-16));
#858=DIRECTION('',(0.5,-0.816496580927726,0.288675134594813));
#859=DIRECTION('',(0.5,0.816496580927726,-0.288675134594813));
#860=DIRECTION('center_axis',(-0.816496580927726,0.333333333333333,-0.471404520791032));
#861=DIRECTION('ref_axis',(-0.5,0.,0.866025403784439));
#862=DIRECTION('',(2.35513868802566E-16,-0.816496580927726,-0.577350269189626));
#863=DIRECTION('',(0.5,4.07081775695891E-16,-0.866025403784438));
#864=DIRECTION('',(-0.5,-0.816496580927726,0.288675134594813));
#865=DIRECTION('',(-2.4980018054066E-16,0.816496580927726,0.577350269189626));
#866=DIRECTION('center_axis',(0.,1.,0.));
#867=DIRECTION('ref_axis',(0.,0.,1.));
#868=DIRECTION('center_axis',(0.,1.,0.));
#869=DIRECTION('ref_axis',(0.866025403784439,0.,0.5));
#870=DIRECTION('',(1.,0.,2.66453525910038E-16));
#871=DIRECTION('center_axis',(0.,1.,0.));
#872=DIRECTION('ref_axis',(-0.866025403784437,5.66558314796049E-17,0.500000000000003));
#873=DIRECTION('',(-0.5,0.,0.866025403784439));
#874=DIRECTION('center_axis',(0.,1.,0.));
#875=DIRECTION('ref_axis',(-1.04159534846178E-15,0.,-1.));
#876=DIRECTION('',(-0.5,0.,-0.866025403784439));
#877=DIRECTION('center_axis',(1.,-2.38713520449171E-16,3.50851500445299E-16));
#878=DIRECTION('ref_axis',(0.,0.43096440627115,-0.902368927062183));
#879=DIRECTION('center_axis',(0.500000000000002,-0.816496580927726,0.288675134594809));
#880=DIRECTION('ref_axis',(-0.866025403784438,-0.471404520791034,0.166666666666665));
#881=DIRECTION('',(1.,-2.38713520449171E-16,3.50851500445299E-16));
#882=DIRECTION('center_axis',(-0.5,-0.816496580927726,0.288675134594814));
#883=DIRECTION('ref_axis',(-0.866025403784439,0.471404520791031,-0.166666666666667));
#884=DIRECTION('center_axis',(-0.5,-0.816496580927726,0.288675134594813));
#885=DIRECTION('ref_axis',(0.612372435695792,-0.56903559372885,-0.548815536468911));
#886=DIRECTION('',(-0.5,-0.816496580927726,0.288675134594813));
#887=DIRECTION('center_axis',(1.,-3.06579622705747E-16,2.46353095312009E-15));
#888=DIRECTION('ref_axis',(-1.11022302462516E-15,-0.942809041582064,0.333333333333332));
#889=DIRECTION('center_axis',(-0.5,0.816496580927726,-0.288675134594813));
#890=DIRECTION('ref_axis',(-0.612372435695795,-0.56903559372885,-0.548815536468908));
#891=DIRECTION('',(-0.5,0.816496580927726,-0.288675134594813));
#892=DIRECTION('center_axis',(0.866025403784439,0.471404520791032,-0.166666666666667));
#893=DIRECTION('ref_axis',(0.5,-0.816496580927726,0.288675134594813));
#894=DIRECTION('',(0.,-0.333333333333333,-0.942809041582063));
#895=DIRECTION('',(0.5,-0.816496580927726,0.288675134594813));
#896=DIRECTION('',(0.,-0.333333333333333,-0.942809041582063));
#897=DIRECTION('center_axis',(-3.42011765575796E-16,-0.942809041582063,
0.333333333333333));
#898=DIRECTION('ref_axis',(-1.,3.22451784912305E-16,-1.14003921858599E-16));
#899=DIRECTION('',(0.,-0.333333333333333,-0.942809041582063));
#900=DIRECTION('',(-1.,2.38713520449171E-16,-3.50851500445299E-16));
#901=DIRECTION('center_axis',(0.5,4.44089209850063E-16,-0.866025403784439));
#902=DIRECTION('ref_axis',(0.781474414421558,0.43096440627115,0.451184463531091));
#903=DIRECTION('',(-0.5,-4.96425625139522E-16,0.866025403784439));
#904=DIRECTION('center_axis',(2.02615701994091E-15,-0.816496580927726,-0.577350269189626));
#905=DIRECTION('ref_axis',(-0.577350269189625,-0.471404520791033,0.666666666666666));
#906=DIRECTION('center_axis',(-0.500000000000001,-0.816496580927725,0.288675134594813));
#907=DIRECTION('ref_axis',(-0.288675134594812,0.471404520791032,0.833333333333333));
#908=DIRECTION('center_axis',(-0.5,-0.816496580927726,0.288675134594813));
#909=DIRECTION('ref_axis',(0.781474414421561,-0.569035593728844,-0.255922317655457));
#910=DIRECTION('',(0.5,0.816496580927726,-0.288675134594813));
#911=DIRECTION('center_axis',(0.50000000000001,-7.88258347483861E-15,-0.866025403784433));
#912=DIRECTION('ref_axis',(-0.288675134594821,-0.942809041582061,-0.166666666666667));
#913=DIRECTION('center_axis',(-2.4980018054066E-16,0.816496580927726,0.577350269189626));
#914=DIRECTION('ref_axis',(0.169101978725763,-0.569035593728846,0.804737854124367));
#915=DIRECTION('',(2.17750802434267E-16,-0.816496580927726,-0.577350269189626));
#916=DIRECTION('center_axis',(-0.288675134594813,0.471404520791032,0.833333333333333));
#917=DIRECTION('ref_axis',(-0.5,-0.816496580927726,0.288675134594813));
#918=DIRECTION('',(0.816496580927726,-0.333333333333333,0.471404520791032));
#919=DIRECTION('',(-0.5,-0.816496580927726,0.288675134594813));
#920=DIRECTION('',(0.816496580927726,-0.333333333333333,0.471404520791032));
#921=DIRECTION('center_axis',(-0.288675134594813,-0.942809041582063,-0.166666666666667));
#922=DIRECTION('ref_axis',(0.500000000000001,3.22451784912305E-16,-0.866025403784438));
#923=DIRECTION('',(0.816496580927726,-0.333333333333333,0.471404520791032));
#924=DIRECTION('',(0.5,4.96425625139522E-16,-0.866025403784439));
#925=DIRECTION('center_axis',(0.5,3.05311331771918E-16,0.866025403784439));
#926=DIRECTION('ref_axis',(-0.781474414421557,0.43096440627115,0.451184463531092));
#927=DIRECTION('',(-0.5,-3.31479539416648E-16,-0.866025403784439));
#928=DIRECTION('center_axis',(0.499999999999999,-0.816496580927726,0.288675134594814));
#929=DIRECTION('ref_axis',(-0.288675134594813,-0.471404520791032,-0.833333333333333));
#930=DIRECTION('',(0.5,2.68303897617746E-16,0.866025403784439));
#931=DIRECTION('center_axis',(-8.46545056276682E-15,-0.816496580927726,
-0.577350269189625));
#932=DIRECTION('ref_axis',(-0.577350269189622,0.471404520791037,-0.666666666666666));
#933=DIRECTION('center_axis',(2.4980018054066E-16,-0.816496580927726,-0.577350269189626));
#934=DIRECTION('ref_axis',(-0.169101978725762,-0.569035593728849,0.804737854124366));
#935=DIRECTION('',(2.95124845724344E-16,-0.816496580927726,-0.577350269189626));
#936=DIRECTION('',(-2.17750802434268E-16,0.816496580927726,0.577350269189626));
#937=DIRECTION('center_axis',(0.499999999999991,-3.52495810318487E-15,0.866025403784444));
#938=DIRECTION('ref_axis',(0.288675134594818,-0.942809041582061,-0.166666666666669));
#939=DIRECTION('center_axis',(-0.5,0.816496580927726,-0.288675134594813));
#940=DIRECTION('ref_axis',(-0.781474414421555,-0.569035593728851,-0.255922317655458));
#941=DIRECTION('',(0.5,-0.816496580927726,0.288675134594813));
#942=DIRECTION('',(-0.5,0.816496580927726,-0.288675134594813));
#943=DIRECTION('center_axis',(-0.577350269189626,0.471404520791032,-0.666666666666667));
#944=DIRECTION('ref_axis',(1.38777878078145E-16,-0.816496580927726,-0.577350269189626));
#945=DIRECTION('',(-0.816496580927726,-0.333333333333333,0.471404520791032));
#946=DIRECTION('',(2.17750802434268E-16,-0.816496580927726,-0.577350269189626));
#947=DIRECTION('',(-0.816496580927726,-0.333333333333333,0.471404520791032));
#948=DIRECTION('center_axis',(0.288675134594813,-0.942809041582063,-0.166666666666666));
#949=DIRECTION('ref_axis',(0.5,3.22451784912305E-16,0.866025403784439));
#950=DIRECTION('',(-0.816496580927726,-0.333333333333333,0.471404520791032));
#951=DIRECTION('',(0.5,3.31479539416648E-16,0.866025403784439));
#952=DIRECTION('center_axis',(0.816496580927726,0.333333333333333,-0.471404520791031));
#953=DIRECTION('ref_axis',(-0.5,0.,-0.866025403784439));
#954=DIRECTION('center_axis',(-0.5,-4.44089209850063E-16,0.866025403784439));
#955=DIRECTION('ref_axis',(-0.373226123957694,0.902368927062183,-0.215482203135573));
#956=DIRECTION('center_axis',(-0.500000000000003,-0.816496580927724,0.288675134594814));
#957=DIRECTION('ref_axis',(0.28867513459481,-0.471404520791034,-0.833333333333333));
#958=DIRECTION('',(-0.5,-4.07081775695891E-16,0.866025403784438));
#959=DIRECTION('center_axis',(-9.15933995315754E-16,-0.816496580927728,
-0.577350269189623));
#960=DIRECTION('ref_axis',(0.577350269189626,0.471404520791029,-0.666666666666669));
#961=DIRECTION('center_axis',(0.5,0.816496580927726,-0.288675134594813));
#962=DIRECTION('ref_axis',(-0.37322612395769,-0.0976310729378217,-0.922588984322124));
#963=DIRECTION('',(0.5,0.816496580927726,-0.288675134594813));
#964=DIRECTION('center_axis',(-0.5,-2.74780198594726E-15,0.866025403784439));
#965=DIRECTION('ref_axis',(-0.288675134594812,-0.942809041582063,-0.166666666666669));
#966=DIRECTION('center_axis',(2.4980018054066E-16,-0.816496580927726,-0.577350269189626));
#967=DIRECTION('ref_axis',(-0.985598559653488,-0.0976310729378182,0.138071187457706));
#968=DIRECTION('',(-2.17750802434267E-16,0.816496580927726,0.577350269189626));
#969=DIRECTION('',(2.4980018054066E-16,-0.816496580927726,-0.577350269189626));
#970=DIRECTION('center_axis',(0.577350269189626,0.471404520791032,-0.666666666666666));
#971=DIRECTION('ref_axis',(-3.05311331771918E-16,0.816496580927726,0.577350269189626));
#972=DIRECTION('center_axis',(-0.816496580927726,0.333333333333333,-0.471404520791032));
#973=DIRECTION('ref_axis',(-0.5,0.,0.866025403784439));
#974=DIRECTION('',(-2.8083853398625E-16,0.816496580927726,0.577350269189626));
#975=DIRECTION('',(-0.5,-0.816496580927726,0.288675134594813));
#976=DIRECTION('center_axis',(-1.,2.38713520449171E-16,-3.50851500445299E-16));
#977=DIRECTION('ref_axis',(0.,0.902368927062182,0.430964406271152));
#978=DIRECTION('',(1.,-2.38713520449171E-16,3.50851500445299E-16));
#979=DIRECTION('center_axis',(-0.500000000000002,-0.816496580927724,0.288675134594817));
#980=DIRECTION('ref_axis',(0.866025403784438,-0.471404520791032,0.16666666666667));
#981=DIRECTION('center_axis',(0.499999999999999,-0.816496580927727,0.288675134594813));
#982=DIRECTION('ref_axis',(0.866025403784439,0.471404520791031,-0.166666666666666));
#983=DIRECTION('center_axis',(0.5,-0.816496580927726,0.288675134594813));
#984=DIRECTION('ref_axis',(-0.612372435695796,-0.0976310729378216,0.784517796864423));
#985=DIRECTION('',(-0.5,0.816496580927726,-0.288675134594813));
#986=DIRECTION('center_axis',(1.,-3.06579622705753E-16,2.46353095312009E-15));
#987=DIRECTION('ref_axis',(1.11022302462516E-15,0.942809041582064,-0.333333333333332));
#988=DIRECTION('center_axis',(0.5,0.816496580927726,-0.288675134594813));
#989=DIRECTION('ref_axis',(0.612372435695792,-0.0976310729378173,0.784517796864426));
#990=DIRECTION('',(-0.5,-0.816496580927726,0.288675134594813));
#991=DIRECTION('',(0.5,0.816496580927726,-0.288675134594813));
#992=DIRECTION('center_axis',(-0.866025403784439,0.471404520791032,-0.166666666666667));
#993=DIRECTION('ref_axis',(0.5,0.816496580927726,-0.288675134594813));
#994=DIRECTION('center_axis',(-2.51214793389404E-16,0.333333333333333,0.942809041582063));
#995=DIRECTION('ref_axis',(1.,0.,2.66453525910038E-16));
#996=DIRECTION('',(0.5,-0.816496580927726,0.288675134594813));
#997=DIRECTION('',(0.5,0.816496580927726,-0.288675134594813));
#998=DIRECTION('center_axis',(-0.5,-3.05311331771918E-16,-0.866025403784439));
#999=DIRECTION('ref_axis',(0.373226123957695,0.902368927062182,-0.215482203135575));
#1000=DIRECTION('center_axis',(1.58206781009085E-15,-0.816496580927723,
-0.577350269189631));
#1001=DIRECTION('ref_axis',(0.577350269189628,-0.471404520791034,0.666666666666663));
#1002=DIRECTION('',(-0.5,-2.68303897617746E-16,-0.866025403784439));
#1003=DIRECTION('center_axis',(0.500000000000008,-0.816496580927722,0.288675134594809));
#1004=DIRECTION('ref_axis',(0.288675134594808,0.47140452079103,0.833333333333336));
#1005=DIRECTION('center_axis',(-2.4980018054066E-16,0.816496580927726,0.577350269189626));
#1006=DIRECTION('ref_axis',(0.985598559653488,-0.0976310729378212,0.138071187457702));
#1007=DIRECTION('',(-2.95124845724344E-16,0.816496580927726,0.577350269189626));
#1008=DIRECTION('center_axis',(-0.499999999999989,-1.38777878078145E-15,
-0.866025403784445));
#1009=DIRECTION('ref_axis',(0.288675134594811,-0.942809041582065,-0.166666666666659));
#1010=DIRECTION('center_axis',(0.5,-0.816496580927726,0.288675134594813));
#1011=DIRECTION('ref_axis',(0.373226123957701,-0.0976310729378152,-0.92258898432212));
#1012=DIRECTION('',(-0.5,0.816496580927726,-0.288675134594813));
#1013=DIRECTION('',(0.5,-0.816496580927726,0.288675134594813));
#1014=DIRECTION('center_axis',(0.288675134594813,0.471404520791032,0.833333333333333));
#1015=DIRECTION('ref_axis',(-0.5,0.816496580927726,-0.288675134594813));
#1016=DIRECTION('center_axis',(0.816496580927726,0.333333333333333,-0.471404520791031));
#1017=DIRECTION('ref_axis',(-0.5,0.,-0.866025403784439));
#1018=DIRECTION('',(-0.5,0.816496580927726,-0.288675134594813));
#1019=DIRECTION('',(2.8083853398625E-16,-0.816496580927726,-0.577350269189626));
#1020=DIRECTION('center_axis',(6.12323399573675E-17,0.,1.));
#1021=DIRECTION('ref_axis',(1.,0.,0.));
#1022=DIRECTION('center_axis',(0.499999999999981,0.816496580927736,-0.288675134594818));
#1023=DIRECTION('ref_axis',(0.,0.333333333333335,0.942809041582063));
#1024=DIRECTION('center_axis',(-0.500000000000006,0.81649658092772,-0.288675134594821));
#1025=DIRECTION('ref_axis',(0.816496580927725,0.333333333333336,-0.471404520791032));
#1026=DIRECTION('center_axis',(-1.20056874526308E-14,0.816496580927717,
0.577350269189638));
#1027=DIRECTION('ref_axis',(-0.816496580927727,0.333333333333332,-0.471404520791032));
#1028=DIRECTION('center_axis',(-0.5,0.816496580927726,-0.288675134594813));
#1029=DIRECTION('ref_axis',(0.707106781186548,0.577350269189625,0.408248290463863));
#1030=DIRECTION('center_axis',(-2.35513868802566E-16,0.816496580927726,
0.577350269189626));
#1031=DIRECTION('ref_axis',(-1.44222201478767E-15,0.577350269189625,-0.816496580927726));
#1032=DIRECTION('center_axis',(0.5,0.816496580927726,-0.288675134594813));
#1033=DIRECTION('ref_axis',(-0.707106781186545,0.577350269189626,0.408248290463867));
#1034=DIRECTION('',(0.,0.,1.));
#1035=DIRECTION('',(1.,0.,0.));
#1036=DIRECTION('',(0.,0.,1.));
#1037=DIRECTION('',(1.,0.,0.));
#1038=DIRECTION('',(0.,0.,1.));
#1039=DIRECTION('',(1.,0.,0.));
#1040=DIRECTION('',(0.,0.,1.));
#1041=DIRECTION('',(1.,0.,0.));
#1042=DIRECTION('',(0.,0.,1.));
#1043=DIRECTION('',(1.,0.,0.));
#1044=DIRECTION('',(0.,0.,1.));
#1045=DIRECTION('',(1.,0.,0.));
#1046=DIRECTION('',(0.,0.,1.));
#1047=DIRECTION('',(1.,0.,0.));
#1048=DIRECTION('',(0.,0.,1.));
#1049=DIRECTION('',(1.,0.,0.));
#1050=DIRECTION('',(0.,0.,1.));
#1051=DIRECTION('',(1.,0.,0.));
#1052=DIRECTION('',(0.,0.,1.));
#1053=DIRECTION('',(1.,0.,0.));
#1054=DIRECTION('',(0.,0.,1.));
#1055=DIRECTION('',(1.,0.,0.));
#1056=DIRECTION('',(0.,0.,1.));
#1057=DIRECTION('',(1.,0.,0.));
#1058=DIRECTION('',(0.,0.,1.));
#1059=DIRECTION('',(1.,0.,0.));
#1060=DIRECTION('',(0.,0.,1.));
#1061=DIRECTION('',(1.,0.,0.));
#1062=DIRECTION('',(0.,0.,1.));
#1063=DIRECTION('',(1.,0.,0.));
#1064=DIRECTION('',(0.,0.,1.));
#1065=DIRECTION('',(1.,0.,0.));
#1066=CARTESIAN_POINT('',(0.,0.,0.));
#1067=CARTESIAN_POINT('',(0.,0.,0.));
#1068=CARTESIAN_POINT('Origin',(-4.25978958398866,0.5,-16.8931473927477));
#1069=CARTESIAN_POINT('',(-21.0195791679773,0.,12.1356596908844));
#1070=CARTESIAN_POINT('',(4.44089209850063E-15,0.,-24.2713193817687));
#1071=CARTESIAN_POINT('',(-4.25978958398866,0.,-16.8931473927477));
#1072=CARTESIAN_POINT('',(9.34311387838258E-15,0.333333333333332,-23.3285103401867));
#1073=CARTESIAN_POINT('Origin',(9.99200722162641E-15,0.5,-24.2713193817687));
#1074=CARTESIAN_POINT('',(-20.2030825870496,0.333333333333332,11.6642551700933));
#1075=CARTESIAN_POINT('',(-3.8515412935248,0.333333333333334,-16.6574451323522));
#1076=CARTESIAN_POINT('Origin',(-21.0195791679773,0.5,12.1356596908844));
#1077=CARTESIAN_POINT('Origin',(-12.5,0.5,12.1356596908844));
#1078=CARTESIAN_POINT('',(20.2030825870496,0.333333333333333,11.6642551700933));
#1079=CARTESIAN_POINT('',(-12.5,0.333333333333333,11.6642551700933));
#1080=CARTESIAN_POINT('',(21.0195791679773,0.,12.1356596908844));
#1081=CARTESIAN_POINT('Origin',(21.0195791679773,0.5,12.1356596908844));
#1082=CARTESIAN_POINT('',(-12.5,0.,12.1356596908844));
#1083=CARTESIAN_POINT('Origin',(16.7597895839887,0.5,4.7574877018633));
#1084=CARTESIAN_POINT('',(16.7597895839887,0.,4.7574877018633));
#1085=CARTESIAN_POINT('',(16.3515412935248,0.333333333333333,4.99318996225882));
#1086=CARTESIAN_POINT('Origin',(-25.,-0.833333333333333,12.0767341257855));
#1087=CARTESIAN_POINT('',(-2.62811395231932E-15,33.3248290463863,-1.85037170770859E-15));
#1088=CARTESIAN_POINT('',(-15.688137821521,7.70620726159657,9.05755059433911));
#1089=CARTESIAN_POINT('',(15.688137821521,7.70620726159658,9.05755059433912));
#1090=CARTESIAN_POINT('',(15.4737205583712,4.35211639536801,10.2434007924522));
#1091=CARTESIAN_POINT('',(-15.4737205583712,4.35211639536802,10.2434007924521));
#1092=CARTESIAN_POINT('',(-5.19615242270662,4.35211639536802,10.2434007924521));
#1093=CARTESIAN_POINT('',(8.88178419700125E-15,29.6205962556503,1.30964406271151));
#1094=CARTESIAN_POINT('',(4.08493649053891,22.9499228999864,3.66808324514667));
#1095=CARTESIAN_POINT('',(-17.6387840678323,0.81658248943528,11.4934007924521));
#1096=CARTESIAN_POINT('Origin',(2.04124145231932,-0.833333333333333,-27.6890021575037));
#1097=CARTESIAN_POINT('',(7.21644966006352E-15,7.70620726159657,-18.1151011886782));
#1098=CARTESIAN_POINT('',(-16.6079055865948,4.35211639536801,8.27893469838489));
#1099=CARTESIAN_POINT('',(-1.13418502822363,4.35211639536803,-18.522335490837));
#1100=CARTESIAN_POINT('',(-6.27296909605589,4.35211639536802,-9.62170039622607));
#1101=CARTESIAN_POINT('',(-1.13418502822364,29.6205962556503,-0.65482203135575));
#1102=CARTESIAN_POINT('',(-5.21912151876253,22.9499228999864,1.70361715107941));
#1103=CARTESIAN_POINT('',(-1.13418502822363,0.816582489435281,-21.022335490837));
#1104=CARTESIAN_POINT('Origin',(1.36254643931269E-15,0.,-2.22044604925031E-15));
#1105=CARTESIAN_POINT('',(23.3670068381445,0.,14.4337567297407));
#1106=CARTESIAN_POINT('',(24.1835034190723,0.,13.0195431673676));
#1107=CARTESIAN_POINT('Origin',(23.1628826929126,-1.11022302462516E-15,
13.3730965579608));
#1108=CARTESIAN_POINT('',(-23.3670068381445,0.,14.4337567297406));
#1109=CARTESIAN_POINT('',(-25.,0.,14.4337567297406));
#1110=CARTESIAN_POINT('',(-24.1835034190723,0.,13.0195431673675));
#1111=CARTESIAN_POINT('Origin',(-23.1628826929126,0.,13.3730965579608));
#1112=CARTESIAN_POINT('',(-0.816496580927718,0.,-27.4532998971082));
#1113=CARTESIAN_POINT('',(7.55359528475866E-15,0.,-28.8675134594813));
#1114=CARTESIAN_POINT('',(0.816496580927737,0.,-27.4532998971082));
#1115=CARTESIAN_POINT('Origin',(9.31681710482548E-15,-1.11022302462516E-15,
-26.7461931159217));
#1116=CARTESIAN_POINT('',(25.,0.,14.4337567297407));
#1117=CARTESIAN_POINT('Origin',(-5.19615242270662,4.51878306203469,10.7148053132432));
#1118=CARTESIAN_POINT('',(-14.6076951545867,4.99018758282572,10.5481386465765));
#1119=CARTESIAN_POINT('Origin',(-15.4737205583712,4.51878306203469,10.7148053132432));
#1120=CARTESIAN_POINT('',(14.6076951545867,4.99018758282571,10.5481386465765));
#1121=CARTESIAN_POINT('',(-5.19615242270662,4.99018758282572,10.5481386465765));
#1122=CARTESIAN_POINT('Origin',(15.4737205583712,4.51878306203468,10.7148053132432));
#1123=CARTESIAN_POINT('Origin',(-17.6387840678323,0.983249156101947,11.9648053132432));
#1124=CARTESIAN_POINT('',(6.66133814775094E-15,28.8444538807349,2.11438191683587));
#1125=CARTESIAN_POINT('',(-17.20577136594,0.747546895706431,12.0481386465765));
#1126=CARTESIAN_POINT('Origin',(7.7715611723761E-15,29.7872629223169,1.78104858350254));
#1127=CARTESIAN_POINT('Origin',(4.08493649053891,23.1165895666531,4.1394877659377));
#1128=CARTESIAN_POINT('',(3.65192378864669,22.8808873062576,4.22282109927104));
#1129=CARTESIAN_POINT('Origin',(6.66133814775094E-15,29.5111205474015,4.));
#1130=CARTESIAN_POINT('',(14.6076951545867,5.49018758282571,11.9623522089496));
#1131=CARTESIAN_POINT('',(14.6076951545867,5.65685424949238,12.4337567297406));
#1132=CARTESIAN_POINT('',(6.66133814775094E-15,29.3444538807349,3.52859547920897));
#1133=CARTESIAN_POINT('',(3.65192378864669,23.3808873062576,5.63703466164413));
#1134=CARTESIAN_POINT('',(6.66133814775094E-15,29.5111205474015,4.));
#1135=CARTESIAN_POINT('Origin',(14.6076951545867,5.65685424949238,12.4337567297406));
#1136=CARTESIAN_POINT('',(-14.6076951545867,5.49018758282572,11.9623522089496));
#1137=CARTESIAN_POINT('',(-14.6076951545867,5.65685424949239,12.4337567297406));
#1138=CARTESIAN_POINT('',(-5.19615242270662,5.49018758282572,11.9623522089496));
#1139=CARTESIAN_POINT('Origin',(-6.68121738651976,4.51878306203469,-9.85740265662159));
#1140=CARTESIAN_POINT('',(-1.8311084532823,4.99018758282572,-17.9247044178992));
#1141=CARTESIAN_POINT('',(-16.438803607869,4.99018758282571,7.37656577132271));
#1142=CARTESIAN_POINT('',(-6.53687981922235,4.99018758282572,-9.77406932328826));
#1143=CARTESIAN_POINT('Origin',(-17.0161538770587,4.51878306203468,8.04323243798937));
#1144=CARTESIAN_POINT('Origin',(-1.54243331868749,4.51878306203469,-18.7580377512325));
#1145=CARTESIAN_POINT('Origin',(-5.6273698092264,23.1165895666531,1.46791489068389));
#1146=CARTESIAN_POINT('',(-1.83110845328231,28.8444538807349,-1.05719095841793));
#1147=CARTESIAN_POINT('',(-5.48303224192899,22.8808873062576,1.05124822401723));
#1148=CARTESIAN_POINT('Origin',(-1.5424333186875,29.7872629223169,-0.890524291751271));
#1149=CARTESIAN_POINT('Origin',(-1.54243331868749,0.983249156101947,-21.2580377512326));
#1150=CARTESIAN_POINT('',(-1.8311084532823,0.747546895706433,-20.9247044178992));
#1151=CARTESIAN_POINT('Origin',(-3.46410161513776,29.5111205474015,-2.));
#1152=CARTESIAN_POINT('',(-17.6635484792606,5.49018758282571,6.66945899013616));
#1153=CARTESIAN_POINT('',(-18.0717967697245,5.65685424949238,6.43375672974064));
#1154=CARTESIAN_POINT('',(-3.05585332467389,29.3444538807349,-1.76429773960448));
#1155=CARTESIAN_POINT('',(-6.70777711332058,23.3808873062576,0.344141442830678));
#1156=CARTESIAN_POINT('',(-3.46410161513776,29.5111205474015,-2.));
#1157=CARTESIAN_POINT('Origin',(-18.0717967697245,5.65685424949238,6.43375672974064));
#1158=CARTESIAN_POINT('',(-3.05585332467389,5.49018758282572,-18.6318111990858));
#1159=CARTESIAN_POINT('',(-3.46410161513775,5.65685424949239,-18.8675134594813));
#1160=CARTESIAN_POINT('',(-7.76162469061394,5.49018758282572,-10.4811761044748));
#1161=CARTESIAN_POINT('Origin',(11.8773698092264,4.51878306203469,-0.857402656621594));
#1162=CARTESIAN_POINT('',(16.438803607869,4.99018758282572,7.3765657713227));
#1163=CARTESIAN_POINT('',(1.83110845328231,4.99018758282572,-17.9247044178992));
#1164=CARTESIAN_POINT('',(11.733032241929,4.99018758282572,-0.774069323288261));
#1165=CARTESIAN_POINT('',(1.13418502822363,4.35211639536802,-18.5223354908371));
#1166=CARTESIAN_POINT('Origin',(1.5424333186875,4.51878306203468,-18.7580377512326));
#1167=CARTESIAN_POINT('',(16.6079055865948,4.35211639536803,8.27893469838488));
#1168=CARTESIAN_POINT('',(11.4691215187625,4.35211639536802,-0.621700396226077));
#1169=CARTESIAN_POINT('Origin',(17.0161538770587,4.51878306203469,8.04323243798936));
#1170=CARTESIAN_POINT('Origin',(1.54243331868749,23.1165895666531,-5.60740265662161));
#1171=CARTESIAN_POINT('',(1.13418502822362,29.6205962556503,-0.654822031355766));
#1172=CARTESIAN_POINT('',(1.13418502822362,22.9499228999864,-5.37170039622609));
#1173=CARTESIAN_POINT('',(1.8311084532823,28.8444538807349,-1.05719095841794));
#1174=CARTESIAN_POINT('',(1.83110845328231,22.8808873062576,-5.27406932328827));
#1175=CARTESIAN_POINT('Origin',(1.54243331868749,29.7872629223169,-0.890524291751276));
#1176=CARTESIAN_POINT('Origin',(19.1812173865198,0.983249156101946,9.29323243798937));
#1177=CARTESIAN_POINT('',(19.0368798192224,0.74754689570643,8.8765657713227));
#1178=CARTESIAN_POINT('',(18.7729690960559,0.816582489435279,9.52893469838489));
#1179=CARTESIAN_POINT('Origin',(3.46410161513775,29.5111205474015,-2.00000000000001));
#1180=CARTESIAN_POINT('',(3.05585332467389,5.49018758282571,-18.6318111990858));
#1181=CARTESIAN_POINT('',(3.46410161513776,5.65685424949238,-18.8675134594813));
#1182=CARTESIAN_POINT('',(3.05585332467389,29.3444538807349,-1.76429773960449));
#1183=CARTESIAN_POINT('',(3.05585332467389,23.3808873062576,-5.98117610447481));
#1184=CARTESIAN_POINT('',(3.46410161513775,29.5111205474015,-2.00000000000001));
#1185=CARTESIAN_POINT('Origin',(3.46410161513776,5.65685424949238,-18.8675134594813));
#1186=CARTESIAN_POINT('',(17.6635484792606,5.49018758282572,6.66945899013616));
#1187=CARTESIAN_POINT('',(18.0717967697245,5.65685424949239,6.43375672974064));
#1188=CARTESIAN_POINT('',(12.9577771133206,5.49018758282572,-1.48117610447481));
#1189=CARTESIAN_POINT('Origin',(22.9587585476807,-0.833333333333333,15.6122680317182));
#1190=CARTESIAN_POINT('Origin',(-7.90596225791135,5.01878306203469,-10.5645094378081));
#1191=CARTESIAN_POINT('',(-3.17542648054294,5.18544972870136,-19.7008467928146));
#1192=CARTESIAN_POINT('Origin',(-2.76717819007908,5.01878306203469,-19.4651445324191));
#1193=CARTESIAN_POINT('',(-18.6491470389141,5.18544972870135,7.10042339640731));
#1194=CARTESIAN_POINT('',(-8.31421054837521,5.18544972870135,-10.8002116982037));
#1195=CARTESIAN_POINT('Origin',(-18.2408987484503,5.01878306203468,7.33612565680283));
#1196=CARTESIAN_POINT('Origin',(-6.85211468061798,23.6165895666531,0.760808109497346));
#1197=CARTESIAN_POINT('',(-3.17542648054295,30.4539295889836,-1.83333333333332));
#1198=CARTESIAN_POINT('',(-7.26036297108185,23.7832562333198,0.52510584910183));
#1199=CARTESIAN_POINT('Origin',(-2.76717819007909,30.2872629223169,-1.59763107293781));
#1200=CARTESIAN_POINT('Origin',(-2.76717819007908,1.48324915610195,-21.9651445324191));
#1201=CARTESIAN_POINT('',(-3.05585332467389,1.24754689570643,-21.6318111990858));
#1202=CARTESIAN_POINT('',(-3.17542648054294,1.64991582276861,-22.2008467928146));
#1203=CARTESIAN_POINT('Origin',(-3.46410161513775,5.65685424949239,-18.8675134594813));
#1204=CARTESIAN_POINT('Origin',(7.55359528475866E-15,0.,-28.8675134594813));
#1205=CARTESIAN_POINT('',(-0.816496580927732,38.1581623797196,-0.47140452079103));
#1206=CARTESIAN_POINT('',(-0.81649658092772,9.53954059492991,-20.7078260530289));
#1207=CARTESIAN_POINT('',(-18.3417517095361,9.53954059492991,9.6468062453279));
#1208=CARTESIAN_POINT('Origin',(-5.19615242270662,5.01878306203469,12.1290188756163));
#1209=CARTESIAN_POINT('',(-15.4737205583712,5.18544972870136,12.6004233964073));
#1210=CARTESIAN_POINT('',(15.4737205583712,5.18544972870135,12.6004233964073));
#1211=CARTESIAN_POINT('',(-5.19615242270662,5.18544972870135,12.6004233964073));
#1212=CARTESIAN_POINT('Origin',(15.4737205583712,5.01878306203468,12.1290188756163));
#1213=CARTESIAN_POINT('Origin',(-15.4737205583712,5.01878306203469,12.1290188756163));
#1214=CARTESIAN_POINT('Origin',(4.08493649053891,23.6165895666531,5.5537013283108));
#1215=CARTESIAN_POINT('',(1.11022302462516E-14,30.4539295889836,3.66666666666667));
#1216=CARTESIAN_POINT('',(4.08493649053891,23.7832562333198,6.02510584910183));
#1217=CARTESIAN_POINT('Origin',(7.7715611723761E-15,30.2872629223169,3.19526214587564));
#1218=CARTESIAN_POINT('Origin',(-17.6387840678323,1.48324915610195,13.3790188756163));
#1219=CARTESIAN_POINT('',(-17.6387840678323,1.64991582276861,13.8504233964073));
#1220=CARTESIAN_POINT('',(-17.20577136594,1.24754689570643,13.4623522089496));
#1221=CARTESIAN_POINT('Origin',(-14.6076951545867,5.65685424949239,12.4337567297406));
#1222=CARTESIAN_POINT('Origin',(-25.,0.,14.4337567297406));
#1223=CARTESIAN_POINT('',(-1.11022302462516E-14,38.1581623797196,0.942809041582062));
#1224=CARTESIAN_POINT('',(17.5252551286084,9.53954059492991,11.061019807701));
#1225=CARTESIAN_POINT('',(-17.5252551286084,9.53954059492991,11.061019807701));
#1226=CARTESIAN_POINT('Origin',(13.102114680618,5.01878306203469,-1.56450943780814));
#1227=CARTESIAN_POINT('',(18.6491470389141,5.18544972870136,7.1004233964073));
#1228=CARTESIAN_POINT('Origin',(18.2408987484502,5.01878306203469,7.33612565680282));
#1229=CARTESIAN_POINT('',(3.17542648054295,5.18544972870135,-19.7008467928146));
#1230=CARTESIAN_POINT('',(13.5103629710818,5.18544972870135,-1.80021169820366));
#1231=CARTESIAN_POINT('Origin',(2.76717819007908,5.01878306203468,-19.4651445324191));
#1232=CARTESIAN_POINT('Origin',(2.76717819007908,23.6165895666531,-6.31450943780815));
#1233=CARTESIAN_POINT('',(3.17542648054293,30.4539295889836,-1.83333333333334));
#1234=CARTESIAN_POINT('',(3.17542648054294,23.7832562333198,-6.55021169820367));
#1235=CARTESIAN_POINT('Origin',(2.76717819007907,30.2872629223169,-1.59763107293783));
#1236=CARTESIAN_POINT('Origin',(20.4059622579113,1.48324915610194,8.58612565680282));
#1237=CARTESIAN_POINT('',(20.2616246906139,1.24754689570643,8.16945899013616));
#1238=CARTESIAN_POINT('',(20.8142105483752,1.64991582276861,8.35042339640731));
#1239=CARTESIAN_POINT('Origin',(18.0717967697245,5.65685424949239,6.43375672974064));
#1240=CARTESIAN_POINT('Origin',(25.,0.,14.4337567297407));
#1241=CARTESIAN_POINT('',(0.816496580927722,38.1581623797196,-0.471404520791028));
#1242=CARTESIAN_POINT('',(18.3417517095361,9.53954059492991,9.64680624532791));
#1243=CARTESIAN_POINT('',(0.816496580927732,9.53954059492991,-20.7078260530289));
#1244=CARTESIAN_POINT('Origin',(-4.44089209850063E-15,37.8248290463863,
0.));
#1245=CARTESIAN_POINT('Origin',(0.,37.8248290463863,-6.66133814775094E-15));
#1246=CARTESIAN_POINT('Origin',(-4.44089209850063E-15,37.8248290463863,
0.));
#1247=CARTESIAN_POINT('Origin',(-1.59354312643023E-15,37.8248290463863,
-4.44089209850063E-15));
#1248=CARTESIAN_POINT('Origin',(17.5252551286084,9.20620726159657,10.1182107661189));
#1249=CARTESIAN_POINT('Origin',(6.66133814775094E-15,9.20620726159657,-20.2364215322379));
#1250=CARTESIAN_POINT('Origin',(-17.5252551286084,9.20620726159657,10.1182107661189));
#1251=CARTESIAN_POINT('',(0.,0.,0.));
#1252=CARTESIAN_POINT('',(0.,0.,50.));
#1253=CARTESIAN_POINT('',(0.,0.,100.));
#1254=CARTESIAN_POINT('',(0.,0.,150.));
#1255=CARTESIAN_POINT('',(50.,0.,0.));
#1256=CARTESIAN_POINT('',(50.,0.,50.));
#1257=CARTESIAN_POINT('',(50.,0.,100.));
#1258=CARTESIAN_POINT('',(50.,0.,150.));
#1259=CARTESIAN_POINT('',(100.,0.,0.));
#1260=CARTESIAN_POINT('',(100.,0.,50.));
#1261=CARTESIAN_POINT('',(100.,0.,100.));
#1262=CARTESIAN_POINT('',(100.,0.,150.));
#1263=CARTESIAN_POINT('',(150.,0.,0.));
#1264=CARTESIAN_POINT('',(150.,0.,50.));
#1265=CARTESIAN_POINT('',(150.,0.,100.));
#1266=CARTESIAN_POINT('',(150.,0.,150.));
#1267=UNCERTAINTY_MEASURE_WITH_UNIT(LENGTH_MEASURE(0.01),#1273,
'DISTANCE_ACCURACY_VALUE',
'Maximum model space distance between geometric entities at asserted c
onnectivities');
#1268=UNCERTAINTY_MEASURE_WITH_UNIT(LENGTH_MEASURE(0.01),#1273,
'DISTANCE_ACCURACY_VALUE',
'Maximum model space distance between geometric entities at asserted c
onnectivities');
#1269=UNCERTAINTY_MEASURE_WITH_UNIT(LENGTH_MEASURE(0.01),#1273,
'DISTANCE_ACCURACY_VALUE',
'Maximum model space distance between geometric entities at asserted c
onnectivities');
#1270=(
GEOMETRIC_REPRESENTATION_CONTEXT(3)
GLOBAL_UNCERTAINTY_ASSIGNED_CONTEXT((#1267))
GLOBAL_UNIT_ASSIGNED_CONTEXT((#1273,#1275,#1276))
REPRESENTATION_CONTEXT('','3D')
);
#1271=(
GEOMETRIC_REPRESENTATION_CONTEXT(3)
GLOBAL_UNCERTAINTY_ASSIGNED_CONTEXT((#1268))
GLOBAL_UNIT_ASSIGNED_CONTEXT((#1273,#1275,#1276))
REPRESENTATION_CONTEXT('','3D')
);
#1272=(
GEOMETRIC_REPRESENTATION_CONTEXT(3)
GLOBAL_UNCERTAINTY_ASSIGNED_CONTEXT((#1269))
GLOBAL_UNIT_ASSIGNED_CONTEXT((#1273,#1275,#1276))
REPRESENTATION_CONTEXT('','3D')
);
#1273=(
LENGTH_UNIT()
NAMED_UNIT(*)
SI_UNIT(.MILLI.,.METRE.)
);
#1274=(
LENGTH_UNIT()
NAMED_UNIT(*)
SI_UNIT($,.METRE.)
);
#1275=(
NAMED_UNIT(*)
PLANE_ANGLE_UNIT()
SI_UNIT($,.RADIAN.)
);
#1276=(
NAMED_UNIT(*)
SI_UNIT($,.STERADIAN.)
SOLID_ANGLE_UNIT()
);
#1277=SHAPE_DEFINITION_REPRESENTATION(#1279,#1297);
#1278=SHAPE_DEFINITION_REPRESENTATION(#1280,#1298);
#1279=PRODUCT_DEFINITION_SHAPE('',$,#1300);
#1280=PRODUCT_DEFINITION_SHAPE('',$,#1301);
#1281=PRODUCT_DEFINITION_SHAPE($,$,#59);
#1282=PRODUCT_DEFINITION_SHAPE($,$,#60);
#1283=PRODUCT_DEFINITION_SHAPE($,$,#61);
#1284=PRODUCT_DEFINITION_SHAPE($,$,#62);
#1285=PRODUCT_DEFINITION_SHAPE($,$,#63);
#1286=PRODUCT_DEFINITION_SHAPE($,$,#64);
#1287=PRODUCT_DEFINITION_SHAPE($,$,#65);
#1288=PRODUCT_DEFINITION_SHAPE($,$,#66);
#1289=PRODUCT_DEFINITION_SHAPE($,$,#67);
#1290=PRODUCT_DEFINITION_SHAPE($,$,#68);
#1291=PRODUCT_DEFINITION_SHAPE($,$,#69);
#1292=PRODUCT_DEFINITION_SHAPE($,$,#70);
#1293=PRODUCT_DEFINITION_SHAPE($,$,#71);
#1294=PRODUCT_DEFINITION_SHAPE($,$,#72);
#1295=PRODUCT_DEFINITION_SHAPE($,$,#73);
#1296=PRODUCT_DEFINITION_SHAPE($,$,#74);
#1297=SHAPE_REPRESENTATION('',(#745,#815,#816,#817,#818,#819,#820,#821,
#822,#823,#824,#825,#826,#827,#828,#829,#830),#1270);
#1298=SHAPE_REPRESENTATION('',(#746),#1271);
#1299=PRODUCT_DEFINITION_CONTEXT('part definition',#1307,'design');
#1300=PRODUCT_DEFINITION('2026-07-31-16-48-40-662',
'DAY 15 Painter''s Tripod',#1302,#1299);
#1301=PRODUCT_DEFINITION('2026-07-31-16-49-48-167','painter''s tripod',
#1303,#1299);
#1302=PRODUCT_DEFINITION_FORMATION('',$,#1309);
#1303=PRODUCT_DEFINITION_FORMATION('',$,#1310);
#1304=PRODUCT_RELATED_PRODUCT_CATEGORY('DAY 15 Painter''s Tripod',
'DAY 15 Painter''s Tripod',(#1309));
#1305=PRODUCT_RELATED_PRODUCT_CATEGORY('painter''s tripod',
'painter''s tripod',(#1310));
#1306=APPLICATION_PROTOCOL_DEFINITION('international standard',
'automotive_design',2009,#1307);
#1307=APPLICATION_CONTEXT(
'Core Data for Automotive Mechanical Design Process');
#1308=PRODUCT_CONTEXT('part definition',#1307,'mechanical');
#1309=PRODUCT('2026-07-31-16-48-40-662','DAY 15 Painter''s Tripod',$,(#1308));
#1310=PRODUCT('2026-07-31-16-49-48-167','painter''s tripod',$,(#1308));
#1311=PRESENTATION_STYLE_ASSIGNMENT((#1313));
#1312=PRESENTATION_STYLE_ASSIGNMENT((#1314));
#1313=SURFACE_STYLE_USAGE(.BOTH.,#1315);
#1314=SURFACE_STYLE_USAGE(.BOTH.,#1316);
#1315=SURFACE_SIDE_STYLE('',(#1317));
#1316=SURFACE_SIDE_STYLE('',(#1318));
#1317=SURFACE_STYLE_FILL_AREA(#1319);
#1318=SURFACE_STYLE_FILL_AREA(#1320);
#1319=FILL_AREA_STYLE('Steel - Satin',(#1321));
#1320=FILL_AREA_STYLE('Polymide (Kapton)',(#1322));
#1321=FILL_AREA_STYLE_COLOUR('Steel - Satin',#1323);
#1322=FILL_AREA_STYLE_COLOUR('Polymide (Kapton)',#1324);
#1323=COLOUR_RGB('Steel - Satin',0.627450980392157,0.627450980392157,0.627450980392157);
#1324=COLOUR_RGB('Polymide (Kapton)',0.784313725490196,0.556862745098039,
0.0274509803921569);
ENDSEC;
END-ISO-10303-21;
